<?xml version="1.0" encoding="utf-8"?>
<!-- Generator: Adobe Illustrator 22.0.1, SVG Export Plug-In . SVG Version: 6.00 Build 0)  -->
<svg version="1.1" id="Layer_1" xmlns="http://www.w3.org/2000/svg" xmlns:xlink="http://www.w3.org/1999/xlink" x="0px" y="0px"
	 viewBox="0 0 55 60" style="enable-background:new 0 0 55 60;" xml:space="preserve">
<style type="text/css">
	.st0{fill:#000;}
</style>
<g>
	<g>
		<path class="st0" d="M36.3,0h-8.8c-5.4,0-9.9,4.5-9.9,10v9.5c0,5.5,4.4,10,9.9,10h8.8c0.6,0,1-0.5,1-1.1V1.1
			C37.4,0.5,36.9,0,36.3,0z M35.3,27.4h-7.8c-4.3,0-7.8-3.5-7.8-7.9V10c0-4.4,3.5-7.9,7.8-7.9h7.8V27.4z M27.5,30.5h-8.8
			c-0.6,0-1,0.5-1,1.1v27.4c0,0.6,0.5,1.1,1,1.1h8.8c5.4,0,9.9-4.5,9.9-10v-9.5C37.4,35,32.9,30.5,27.5,30.5z M35.3,50
			c0,4.4-3.5,7.9-7.8,7.9h-7.8V32.6h7.8c4.3,0,7.8,3.5,7.8,7.9V50z M51.9,11.6h-9.3c-1.7,0-3.1,1.4-3.1,3.2c0,1.7,1.4,3.2,3.1,3.2
			h9.3c1.7,0,3.1-1.4,3.1-3.2C55,13,53.6,11.6,51.9,11.6z M51.9,15.8h-9.3c-0.6,0-1-0.5-1-1.1c0-0.6,0.5-1.1,1-1.1h9.3
			c0.6,0,1,0.5,1,1.1C52.9,15.3,52.5,15.8,51.9,15.8z M42.5,8.4h9.3C53.6,8.4,55,7,55,5.3c0-1.7-1.4-3.2-3.1-3.2h-9.3
			c-1.7,0-3.1,1.4-3.1,3.2C39.4,7,40.8,8.4,42.5,8.4z M42.6,4.2h9.3c0.6,0,1,0.5,1,1.1c0,0.6-0.5,1.1-1,1.1h-9.3c-0.6,0-1-0.5-1-1.1
			C41.5,4.7,42,4.2,42.6,4.2z M51.9,21.1h-9.3c-1.7,0-3.1,1.4-3.1,3.2c0,1.7,1.4,3.2,3.1,3.2h9.3c1.7,0,3.1-1.4,3.1-3.2
			C55,22.5,53.6,21.1,51.9,21.1z M51.9,25.3h-9.3c-0.6,0-1-0.5-1-1.1c0-0.6,0.5-1.1,1-1.1h9.3c0.6,0,1,0.5,1,1.1
			C52.9,24.8,52.5,25.3,51.9,25.3z M12.4,32.6H3.1C1.4,32.6,0,34,0,35.8c0,1.7,1.4,3.2,3.1,3.2h9.3c1.7,0,3.1-1.4,3.1-3.2
			C15.6,34,14.2,32.6,12.4,32.6z M12.4,36.8H3.1c-0.6,0-1-0.5-1-1.1c0-0.6,0.5-1.1,1-1.1h9.3c0.6,0,1,0.5,1,1.1
			C13.5,36.4,13,36.8,12.4,36.8z M12.4,42.1H3.1c-1.7,0-3.1,1.4-3.1,3.2c0,1.7,1.4,3.2,3.1,3.2h9.3c1.7,0,3.1-1.4,3.1-3.2
			C15.6,43.5,14.2,42.1,12.4,42.1z M12.4,46.3H3.1c-0.6,0-1-0.5-1-1.1c0-0.6,0.5-1.1,1-1.1h9.3c0.6,0,1,0.5,1,1.1
			C13.5,45.8,13,46.3,12.4,46.3z M12.4,51.6H3.1C1.4,51.6,0,53,0,54.7s1.4,3.2,3.1,3.2h9.3c1.7,0,3.1-1.4,3.1-3.2
			S14.2,51.6,12.4,51.6z M12.4,55.8H3.1c-0.6,0-1-0.5-1-1.1c0-0.6,0.5-1.1,1-1.1h9.3c0.6,0,1,0.5,1,1.1C13.5,55.3,13,55.8,12.4,55.8
			z"/>
	</g>
</g>
</svg>
