<svg id="Logo" xmlns="http://www.w3.org/2000/svg" width="264" height="27" viewBox="0 0 264 27">
  <metadata><?xpacket begin="﻿" id="W5M0MpCehiHzreSzNTczkc9d"?>
<x:xmpmeta xmlns:x="adobe:ns:meta/" x:xmptk="Adobe XMP Core 5.6-c138 79.159824, 2016/09/14-01:09:01        ">
   <rdf:RDF xmlns:rdf="http://www.w3.org/1999/02/22-rdf-syntax-ns#">
      <rdf:Description rdf:about=""/>
   </rdf:RDF>
</x:xmpmeta>
                                                                                                    
                                                                                                    
                                                                                                    
                                                                                                    
                                                                                                    
                                                                                                    
                                                                                                    
                                                                                                    
                                                                                                    
                                                                                                    
                                                                                                    
                                                                                                    
                                                                                                    
                                                                                                    
                                                                                                    
                                                                                                    
                                                                                                    
                                                                                                    
                                                                                                    
                                                                                                    
                           
<?xpacket end="w"?></metadata>
<defs>
    <style>
      .cls-1 {
        fill: #363636;
      }

      .cls-1, .cls-2 {
        fill-rule: evenodd;
      }

      .cls-2 {
        fill: #ff9800;
      }
    </style>
  </defs>
  <path class="cls-1" d="M284.054,58.466l4.681-26.249h4.238l-4.681,26.249h-4.238Zm10.636,0,4.681-26.249h4.239l-4.017,22.526h7.076l-0.664,3.723H294.69Zm20.959,0h-4.391l-1.222-26.249h4.656l-0.107,19.908,7.032-19.908h4.656Zm9.95,0,4.681-26.249H341.6l-0.664,3.723h-7.078l-1.328,7.447h6.094l-0.665,3.725h-6.093l-1.361,7.63h7.078l-0.664,3.723H325.6Zm26.715,0-1.6-10.764h-2.384L346.41,58.466h-4.239l4.681-26.249h6.811c4.921,0,6.475,2.322,5.509,7.743-0.579,3.244-1.675,5.566-4.365,6.856l1.934,11.65h-4.427Zm0.725-22.525h-2.612l-1.434,8.037h2.613c2.27,0,2.939-1.844,3.327-4.017S355.309,35.94,353.039,35.94Zm36.866,0.239-4.017,22.526h-4.239l4.017-22.526h-4.5l0.664-3.722h13.285l-0.664,3.722h-4.543Zm16.674,20.573A7.756,7.756,0,0,1,400.956,59a5.351,5.351,0,0,1-4.822-2.248c-1.4-2.1-1.085-4.942.025-11.171s1.807-9.07,3.96-11.172a7.76,7.76,0,0,1,5.624-2.248,5.347,5.347,0,0,1,4.82,2.248c1.449,2.064,1.088,4.942-.023,11.172S408.763,54.687,406.579,56.752Zm0.365-19.872a1.845,1.845,0,0,0-1.865-1,2.656,2.656,0,0,0-2.185,1c-1.017,1.253-1.641,3.908-2.5,8.7s-1.177,7.446-.607,8.7a1.79,1.79,0,0,0,1.829,1,2.734,2.734,0,0,0,2.221-1c1.018-1.254,1.605-3.909,2.46-8.7S407.515,38.134,406.944,36.88Zm17.392,21.825-3.579-15.594-2.781,15.594h-4.238l4.681-26.249H422.2l3.539,15.594,2.781-15.594h4.239l-4.682,26.249h-3.745Zm9.873,0,4.681-26.249h11.315l-0.664,3.722h-7.076l-1.328,7.448h6.092l-0.665,3.724h-6.091l-1.361,7.632h7.076l-0.664,3.723H434.209Zm-72.323-7.294s-0.21,1.5-.252,2.65a4.014,4.014,0,0,0,.481,2.08c0.642,1.168,2.115,2.8,5.33,2.8h0a8.81,8.81,0,0,0,5.57-1.732c1.593-1.292,2.293-3.1,2.772-5.788,0.789-4.424.215-6.084-2.771-7.374L370.06,42.8c-1.76-.738-1.982-1.4-1.6-3.539a4.557,4.557,0,0,1,1.18-2.58,2.732,2.732,0,0,1,1.948-.738,1.878,1.878,0,0,1,1.753.775,4.086,4.086,0,0,1,.136,2.848h4.238c0.447-2.508.3-4.434-.865-5.762-0.913-1.032-2.4-1.584-4.562-1.584H372.28a7.649,7.649,0,0,0-6.9,3.957,9.924,9.924,0,0,0-1.119,3.194c-0.033.185-.059,0.358-0.086,0.532a7.363,7.363,0,0,0,.254,3.957,4.178,4.178,0,0,0,2.4,2.111l2.924,1.291c1.937,0.811,2.265,1.512,1.766,4.313a4.834,4.834,0,0,1-1.238,2.912,2.972,2.972,0,0,1-2.176.738,2.191,2.191,0,0,1-1.842-.7,4.238,4.238,0,0,1-.309-2.964c0.056-.462.275-1.841,0.275-1.841l-4.093.03Z" transform="translate(-231 -32)"/>
  <path id="Shape_4_copy" data-name="Shape 4 copy" class="cls-2" d="M464.443,36.179l-1.328,7.448h6.093l-0.664,3.724h-6.093l-2.025,11.354h-4.239l4.681-26.249h11.315l-0.664,3.722h-7.076Zm11.573,22.526,3.866-21.678-4.589,3.023,0.789-4.424,4.615-3.169h4.012l-4.681,26.249h-4.012ZM282.059,39.342c0.448-2.508.3-4.434-.865-5.762C280.285,32.554,278.8,32,276.66,32H235.767l-0.706,3.957h34.666a9.975,9.975,0,0,0-1.119,3.194c-0.032.185-.059,0.358-0.086,0.532H234.4l-0.706,3.957h35.023a4.315,4.315,0,0,0,2.465,2.111l2.923,1.291c1.937,0.811,2.265,1.512,1.766,4.313a4.84,4.84,0,0,1-1.237,2.912,2.977,2.977,0,0,1-2.177.739,2.19,2.19,0,0,1-1.842-.7c-0.486-.663-0.416-1.721-0.262-3.108h0l0.4-3.957h-37.7l-0.706,3.957h33.866A21.347,21.347,0,0,0,266,54.767h-34.3L231,58.724h40.788a8.81,8.81,0,0,0,5.572-1.733c1.594-1.291,2.293-3.1,2.773-5.788,0.789-4.423.215-6.084-2.772-7.373L274.4,42.577c-1.759-.738-1.982-1.4-1.6-3.54a4.565,4.565,0,0,1,1.18-2.58,2.736,2.736,0,0,1,1.949-.738,1.878,1.878,0,0,1,1.752.776,4.087,4.087,0,0,1,.136,2.848h4.238Zm208.766-.492c-2.227,0-3.084-.779-2.527-3.352,0.571-2.614,1.784-3.337,3.983-3.337,2.227,0,3.127.724,2.556,3.337C494.28,38.071,493.066,38.85,490.825,38.85Zm1.27-5.827c-1.627,0-2.326.362-2.783,2.475-0.428,1.989.071,2.476,1.7,2.476,1.685,0,2.4-.486,2.827-2.476C494.294,33.386,493.78,33.023,492.1,33.023ZM492.21,36a1.6,1.6,0,0,1,.642,1.307h-1.1a1.43,1.43,0,0,0-.528-1.14h-0.343l-0.257,1.14h-0.971l0.8-3.643h2.227c0.7,0,.885.543,0.742,1.21A1.179,1.179,0,0,1,492.21,36Zm-0.057-1.557h-0.9l-0.2.959h0.9a0.5,0.5,0,0,0,.457-0.5C492.467,34.637,492.424,34.442,492.153,34.442Z" transform="translate(-231 -32)"/>
</svg>
