<svg id="Група_1" data-name="Група 1" xmlns="http://www.w3.org/2000/svg" width="264" height="27" viewBox="0 0 264 27">
  <metadata><?xpacket begin="﻿" id="W5M0MpCehiHzreSzNTczkc9d"?>
<x:xmpmeta xmlns:x="adobe:ns:meta/" x:xmptk="Adobe XMP Core 5.6-c138 79.159824, 2016/09/14-01:09:01        ">
   <rdf:RDF xmlns:rdf="http://www.w3.org/1999/02/22-rdf-syntax-ns#">
      <rdf:Description rdf:about=""/>
   </rdf:RDF>
</x:xmpmeta>
                                                                                                    
                                                                                                    
                                                                                                    
                                                                                                    
                                                                                                    
                                                                                                    
                                                                                                    
                                                                                                    
                                                                                                    
                                                                                                    
                                                                                                    
                                                                                                    
                                                                                                    
                                                                                                    
                                                                                                    
                                                                                                    
                                                                                                    
                                                                                                    
                                                                                                    
                                                                                                    
                           
<?xpacket end="w"?></metadata>
<defs>
    <style>
      .cls-1 {
        fill: #fff;
      }

      .cls-1, .cls-2 {
        fill-rule: evenodd;
      }

      .cls-2 {
        fill: #ff9800;
      }
    </style>
  </defs>
  <path class="cls-1" d="M284.054,4697.47l4.681-26.25h4.238l-4.681,26.25h-4.238Zm10.636,0,4.681-26.25h4.239l-4.017,22.52h7.076l-0.664,3.73H294.69Zm20.959,0h-4.391l-1.222-26.25h4.656l-0.107,19.9,7.032-19.9h4.656Zm9.95,0,4.681-26.25H341.6l-0.664,3.72h-7.078l-1.328,7.45h6.094l-0.665,3.72h-6.093l-1.361,7.63h7.078l-0.664,3.73H325.6Zm26.715,0-1.6-10.77h-2.384l-1.919,10.77h-4.239l4.681-26.25h6.811c4.921,0,6.475,2.32,5.509,7.74-0.579,3.24-1.675,5.57-4.365,6.86l1.934,11.65h-4.427Zm0.725-22.53h-2.612l-1.434,8.04h2.613c2.27,0,2.939-1.85,3.327-4.02S355.309,4674.94,353.039,4674.94Zm36.866,0.24-4.017,22.53h-4.239l4.017-22.53h-4.5l0.664-3.72h13.285l-0.664,3.72h-4.543Zm16.674,20.57a7.754,7.754,0,0,1-5.623,2.25,5.35,5.35,0,0,1-4.822-2.25c-1.4-2.1-1.085-4.94.025-11.17s1.807-9.07,3.96-11.17a7.758,7.758,0,0,1,5.624-2.25,5.346,5.346,0,0,1,4.82,2.25c1.449,2.06,1.088,4.94-.023,11.17S408.763,4693.69,406.579,4695.75Zm0.365-19.87a1.847,1.847,0,0,0-1.865-1,2.659,2.659,0,0,0-2.185,1c-1.017,1.25-1.641,3.91-2.5,8.7s-1.177,7.45-.607,8.7a1.792,1.792,0,0,0,1.829,1,2.736,2.736,0,0,0,2.221-1c1.018-1.25,1.605-3.91,2.46-8.7S407.515,4677.13,406.944,4675.88Zm17.392,21.83-3.579-15.6-2.781,15.6h-4.238l4.681-26.25H422.2l3.539,15.59,2.781-15.59h4.239l-4.682,26.25h-3.745Zm9.873,0,4.681-26.25h11.315l-0.664,3.72h-7.076l-1.328,7.45h6.092l-0.665,3.72h-6.091l-1.361,7.63h7.076l-0.664,3.73H434.209Zm-72.323-7.3s-0.21,1.5-.252,2.65a4.025,4.025,0,0,0,.481,2.08c0.642,1.17,2.115,2.8,5.33,2.8h0a8.817,8.817,0,0,0,5.57-1.73c1.593-1.29,2.293-3.1,2.772-5.79,0.789-4.42.215-6.08-2.771-7.37l-2.956-1.25c-1.76-.74-1.982-1.4-1.6-3.54a4.555,4.555,0,0,1,1.18-2.58,2.747,2.747,0,0,1,1.948-.74,1.881,1.881,0,0,1,1.753.78,4.06,4.06,0,0,1,.136,2.84h4.238c0.447-2.5.3-4.43-.865-5.76-0.913-1.03-2.4-1.58-4.562-1.58H372.28a7.636,7.636,0,0,0-6.9,3.95,9.929,9.929,0,0,0-1.119,3.2c-0.033.18-.059,0.36-0.086,0.53a7.374,7.374,0,0,0,.254,3.96,4.207,4.207,0,0,0,2.4,2.11l2.924,1.29c1.937,0.81,2.265,1.51,1.766,4.31a4.81,4.81,0,0,1-1.238,2.91,2.974,2.974,0,0,1-2.176.74,2.179,2.179,0,0,1-1.842-.7,4.222,4.222,0,0,1-.309-2.96c0.056-.47.275-1.85,0.275-1.85l-4.093.04Z" transform="translate(-231 -4671)"/>
  <path id="Shape_4_copy" data-name="Shape 4 copy" class="cls-2" d="M464.443,4675.18l-1.328,7.45h6.093l-0.664,3.72h-6.093l-2.025,11.36h-4.239l4.681-26.25h11.315l-0.664,3.72h-7.076Zm11.573,22.53,3.866-21.68-4.589,3.02,0.789-4.42,4.615-3.17h4.012l-4.681,26.25h-4.012Zm-193.957-19.37c0.448-2.51.3-4.43-.865-5.76-0.909-1.03-2.392-1.58-4.534-1.58H235.767l-0.706,3.95h34.666a9.976,9.976,0,0,0-1.119,3.2c-0.032.18-.059,0.36-0.086,0.53H234.4l-0.706,3.96h35.023a4.345,4.345,0,0,0,2.465,2.11l2.923,1.29c1.937,0.81,2.265,1.51,1.766,4.31a4.816,4.816,0,0,1-1.237,2.91,2.978,2.978,0,0,1-2.177.74,2.179,2.179,0,0,1-1.842-.7c-0.486-.66-0.416-1.72-0.262-3.11h0l0.4-3.96h-37.7l-0.706,3.96h33.866a21.407,21.407,0,0,0-.206,3.58h-34.3L231,4697.72h40.788a8.819,8.819,0,0,0,5.572-1.73c1.594-1.29,2.293-3.1,2.773-5.79,0.789-4.42.215-6.08-2.772-7.37l-2.956-1.25c-1.759-.74-1.982-1.4-1.6-3.54a4.529,4.529,0,0,1,1.18-2.58,2.707,2.707,0,0,1,1.949-.74,1.876,1.876,0,0,1,1.752.77,4.094,4.094,0,0,1,.136,2.85h4.238Zm208.766-.49c-2.227,0-3.084-.78-2.527-3.35,0.571-2.62,1.784-3.34,3.983-3.34,2.227,0,3.127.72,2.556,3.34C494.28,4677.07,493.066,4677.85,490.825,4677.85Zm1.27-5.83c-1.627,0-2.326.37-2.783,2.48-0.428,1.99.071,2.47,1.7,2.47,1.685,0,2.4-.48,2.827-2.47C494.294,4672.39,493.78,4672.02,492.1,4672.02Zm0.115,2.98a1.605,1.605,0,0,1,.642,1.31h-1.1a1.427,1.427,0,0,0-.528-1.14h-0.343l-0.257,1.14h-0.971l0.8-3.65h2.227c0.7,0,.885.55,0.742,1.21A1.179,1.179,0,0,1,492.21,4675Zm-0.057-1.56h-0.9l-0.2.96h0.9a0.5,0.5,0,0,0,.457-0.5C492.467,4673.64,492.424,4673.44,492.153,4673.44Z" transform="translate(-231 -4671)"/>
</svg>
