<svg width="219" height="219" viewBox="0 0 219 219" fill="none" xmlns="http://www.w3.org/2000/svg">
<rect width="219" height="219" fill="black" fill-opacity="0"/>
<rect width="219" height="219" fill="black" fill-opacity="0"/>
<rect width="219" height="219" fill="#C8CAD2"/>
<mask id="mask0" mask-type="alpha" maskUnits="userSpaceOnUse" x="0" y="0" width="219" height="219">
<rect width="219" height="219" fill="white"/>
</mask>
<g mask="url(#mask0)">
</g>
<rect width="115" height="115" fill="black" fill-opacity="0" transform="translate(52 52)"/>
<path fill-rule="evenodd" clip-rule="evenodd" d="M109.5 52C141.203 52 167 77.7955 167 109.5C167 126.332 159.73 141.495 148.168 152.017L148.223 152.065L146.309 153.662C146.121 153.823 145.91 153.959 145.715 154.116C144.84 154.829 143.938 155.51 143.02 156.171C142.641 156.447 142.262 156.725 141.875 156.989C140.797 157.725 139.691 158.417 138.566 159.08L137.648 159.609C136.414 160.305 135.152 160.959 133.863 161.566L133.383 161.783C129.074 163.761 124.477 165.219 119.676 166.08L119.285 166.151C117.785 166.408 116.266 166.611 114.73 166.751L114.145 166.795C112.609 166.918 111.066 167 109.5 167C107.918 167 106.359 166.918 104.816 166.791L104.25 166.747C102.699 166.607 101.168 166.398 99.6562 166.136L99.2695 166.067C94.3945 165.187 89.7344 163.696 85.3633 161.666L85.0664 161.532C83.7266 160.901 82.418 160.213 81.1367 159.483L80.3672 159.04C79.1953 158.348 78.0508 157.618 76.9336 156.849L75.9102 156.121C74.8672 155.366 73.8398 154.586 72.8477 153.765C72.7773 153.705 72.6992 153.651 72.625 153.596L72.4727 153.478L70.6094 151.906L70.6641 151.858C59.1992 141.34 52 126.246 52 109.5C52 77.7955 77.7969 52 109.5 52ZM109.5 56.1818C80.1016 56.1818 56.1836 80.0997 56.1836 109.5C56.1836 125.228 63.0352 139.383 73.9023 149.152C74.4258 148.778 74.9492 148.443 75.4766 148.157L92.0078 139.139C93.5078 138.319 94.4375 136.751 94.4375 135.045V128.994C93.1523 127.292 89.6641 122.269 87.9727 115.635C86.2031 114.186 85.168 112.038 85.168 109.736V102.324C85.168 100.511 85.8359 98.7527 87.0234 97.3706V87.6124C86.9141 86.5293 86.5312 80.4029 90.9609 75.3513C94.8164 70.9541 101.051 68.7273 109.5 68.7273C117.949 68.7273 124.188 70.9541 128.043 75.3534C132.473 80.405 132.086 86.5272 131.98 87.6145V97.3727C133.168 98.7548 133.832 100.513 133.832 102.326V109.738C133.832 112.718 132.125 115.357 129.473 116.615C128.133 120.49 126.297 124.09 124.004 127.327C123.559 127.956 123.125 128.529 122.715 129.035V135.218C122.715 136.993 123.699 138.591 125.289 139.385L142.992 148.236C143.629 148.554 144.246 148.935 144.859 149.359C155.867 139.586 162.82 125.343 162.82 109.5C162.82 80.0997 138.902 56.1818 109.5 56.1818Z" fill="white"/>
</svg>
