<svg width="39" height="20" viewBox="0 0 39 20" version="1.1" xmlns="http://www.w3.org/2000/svg" xmlns:xlink="http://www.w3.org/1999/xlink">
<title>logo-part</title>
<desc>Created using Figma</desc>
<g id="Canvas" transform="translate(110 2683)">
<g id="logo-part">
<use xlink:href="#path0_fill" transform="translate(-110 -2683)" fill="#344B8E"/>
</g>
</g>
<defs>
<path id="path0_fill" fill-rule="evenodd" d="M 34.717 0.000748279L 34.7185 0L 3.62452 0L 3.08773 2.96094L 29.4455 2.96094C 29.0395 3.66283 28.7559 4.46498 28.5955 5.35094C 28.5704 5.48937 28.5506 5.61883 28.5301 5.74903L 2.58286 5.74903L 2.04607 8.70922L 28.6753 8.70922C 29.0007 9.42532 29.6159 9.88776 30.5496 10.2896L 32.7728 11.2549C 34.2448 11.8617 34.4949 12.387 34.1155 14.4822C 33.9254 15.5305 33.6905 16.192 33.1742 16.6612C 32.7918 17.0204 32.2694 17.2142 31.5197 17.2142C 30.8012 17.2142 30.3519 16.9934 30.1184 16.6896C 29.7489 16.1935 29.8021 15.4011 29.9192 14.364L 30.2249 11.403L 1.55793 11.403L 1.02189 14.364L 26.7707 14.364C 26.7707 14.364 26.5106 16.3132 26.6141 17.0391L 0.536797 17.0391L 0 20L 31.0103 20L 31.0126 20C 32.8283 20 34.276 19.4755 35.25 18.7032C 36.4612 17.7372 36.9934 16.3858 37.3576 14.3729C 37.9575 11.0626 37.5211 9.82041 35.2507 8.85588L 33.0032 7.91754C 31.665 7.36531 31.4954 6.8692 31.7859 5.26863C 31.941 4.4141 32.2329 3.75187 32.6831 3.33807C 33.0587 3.00658 33.5019 2.78584 34.1642 2.78584C 34.8531 2.78584 35.2735 3.00658 35.4963 3.36576C 35.8331 3.88955 35.7601 4.61389 35.5997 5.49686L 38.8228 5.49686C 39.1626 3.62017 39.0501 2.17899 38.1651 1.18527C 37.4739 0.41754 36.3456 0.00448967 34.717 0.000748279Z"/>
</defs>
</svg>
