<?xml version="1.0" encoding="utf-8"?>
<!-- Generator: Adobe Illustrator 22.1.0, SVG Export Plug-In . SVG Version: 6.00 Build 0)  -->
<svg version="1.1" id="Layer_1" xmlns="http://www.w3.org/2000/svg" xmlns:xlink="http://www.w3.org/1999/xlink" x="0px" y="0px"
	 viewBox="0 0 256 27" style="enable-background:new 0 0 256 27;" xml:space="preserve">
<style type="text/css">
	.st0{fill:#FFFFFF;}
</style>
<path id="path0_fill" class="st0" d="M136.9,0.6L136.9,0.6c0,0-4.4-0.3-6.8,3.8c-0.5,0.9-0.9,2-1.1,3.1c0,0.2-0.1,0.3-0.1,0.5
	c0,0-0.5,2.3,0.2,3.8c0.4,0.9,1.2,1.5,2.4,2.1l2.9,1.3c1.9,0.8,2.2,1.5,1.7,4.2c-0.2,1.4-0.5,2.2-1.2,2.8c-0.5,0.5-1.2,0.7-2.1,0.7
	c-0.9,0-1.5-0.3-1.8-0.7c-0.5-0.6-0.5-1.6-0.3-2.9c0.1-0.4,0.3-1.8,0.3-1.8l-4,0l-0.2,1.6c0,0-0.2,1.5-0.2,2.6c0,0.7,0.1,1.4,0.5,2
	c0.6,1.1,2.1,2.7,5.2,2.7c2.3,0,4.2-0.7,5.5-1.7c1.6-1.3,2.2-3,2.7-5.6c0.8-4.3,0.2-5.9-2.7-7.2l-2.9-1.2c-1.7-0.7-1.9-1.4-1.6-3.4
	c0.2-1.1,0.6-2,1.2-2.5c0.5-0.4,1.1-0.7,1.9-0.7c0.9,0,1.4,0.3,1.7,0.8c0.4,0.7,0.3,1.6,0.1,2.8h4.2c0.4-2.4,0.3-4.3-0.8-5.6
	C140.5,1.2,139.1,0.6,136.9,0.6z"/>
<path id="path1_fill" class="st0" d="M197.5,25.6h10.6l0.6-3.5h-6.6l1.3-7.3h5.7l0.6-3.5H204l1.2-7.1h6.6l0.6-3.5h-10.6L197.5,25.6z
	"/>
<path id="path2_fill" class="st0" d="M187.9,15.5l-3.3-14.9h-3.6l-4.4,25h4l2.6-14.9l3.4,14.9h3.5l4.4-25h-4L187.9,15.5z"/>
<path id="path3_fill" class="st0" d="M170.4,13.6c-0.8,4.6-1.4,7.2-2.4,8.4c-0.5,0.6-1.2,1-2.2,1c-1,0-1.5-0.4-1.8-1
	c-0.6-1.2-0.2-3.8,0.6-8.4c0.8-4.6,1.5-7.2,2.4-8.4c0.5-0.6,1.1-1,2.1-1c1,0,1.6,0.4,1.8,1C171.6,6.4,171.2,9,170.4,13.6z
	 M169.8,0.6c-2.4,0-4.2,0.9-5.5,2.2c-2.1,2-2.8,4.8-3.9,10.8c-1.1,6-1.4,8.8,0,10.8c0.9,1.2,2.3,2.2,4.7,2.2c2.4,0,4.2-0.9,5.5-2.2
	c2.1-2,2.8-4.8,3.9-10.8c1.1-6,1.4-8.8,0-10.8C173.7,1.5,172.3,0.6,169.8,0.6z"/>
<path id="path4_fill" class="st0" d="M145.5,4.2h4.2L146,25.6h4l3.7-21.5h4.2l0.6-3.5h-12.4L145.5,4.2z"/>
<path id="path5_fill" class="st0" d="M119.3,8c-0.4,2.1-1,3.8-3.1,3.8h-2.4l1.3-7.7h2.4C119.7,4.2,119.7,5.9,119.3,8z M118.1,0.6
	h-6.3l-4.3,25h3.9l1.8-10.3h2.2l1.5,10.3h4.1l-1.8-11.1c2.5-1.2,3.5-3.4,4-6.5C124.1,2.8,122.7,0.6,118.1,0.6z"/>
<path id="path6_fill" class="st0" d="M92.5,25.6h10.6l0.6-3.5h-6.6l1.3-7.3h5.7l0.6-3.5H99l1.2-7.1h6.6l0.6-3.5H96.9L92.5,25.6z"/>
<path id="path7_fill" class="st0" d="M88.9,0.6l-6.9,19l0.1-19h-4.6l1.2,25H83l10.5-25H88.9z"/>
<path id="path8_fill" class="st0" d="M71.4,0.6h-4.2l-4.7,25h11.3l0.7-3.5h-7.1L71.4,0.6z"/>
<path id="path9_fill" class="st0" d="M51.5,25.6h4.3l4.7-25h-4.3L51.5,25.6z"/>
<g transform="translate(10043 -3095)">
	<path id="path10_fill" class="st0" d="M253.2,3.1c0,0.3-0.2,0.4-0.4,0.4H252l0.2-0.9h0.8C253.2,2.7,253.3,2.8,253.2,3.1z M253.5,2
		h-1.9l-0.7,3.3h0.8l0.2-1h0.3c0.2,0,0.4,0.6,0.5,1h1c-0.1-0.7-0.3-1-0.6-1.2c0.5,0,0.9-0.3,1.1-1C254.2,2.4,254.1,2,253.5,2z
		 M254.5,3.6c-0.4,1.8-1,2.2-2.5,2.2c-1.4,0-1.9-0.4-1.5-2.2c0.4-1.9,1-2.2,2.4-2.2C254.4,1.4,254.9,1.7,254.5,3.6z M253.1,0.6
		c-1.9,0-3,0.6-3.5,3c-0.5,2.3,0.3,3,2.2,3c2,0,3-0.7,3.5-3C255.9,1.3,255.1,0.6,253.1,0.6z"/>
</g>
<path id="path11_fill" class="st0" d="M45,0.6L45,0.6l-39.9,0L4.5,4.5h33.8c-0.5,0.9-0.9,2-1.1,3.1c0,0.2-0.1,0.3-0.1,0.5H3.8
	l-0.7,3.8h34.1c0.4,0.9,1.2,1.5,2.4,2.1l2.9,1.3c1.9,0.8,2.2,1.5,1.7,4.2c-0.2,1.4-0.5,2.2-1.2,2.8c-0.5,0.5-1.2,0.7-2.1,0.7
	c-0.9,0-1.5-0.3-1.8-0.7c-0.5-0.6-0.4-1.7-0.3-3l0.4-3.8H2.5l-0.7,3.8h33c0,0-0.3,2.5-0.2,3.5H1.2l-0.7,3.8h39.8h0
	c2.3,0,4.2-0.7,5.4-1.7c1.6-1.3,2.2-3,2.7-5.6c0.8-4.3,0.2-5.9-2.7-7.2l-2.9-1.2c-1.7-0.7-1.9-1.4-1.6-3.4c0.2-1.1,0.6-2,1.2-2.5
	c0.5-0.4,1-0.7,1.9-0.7c0.9,0,1.4,0.3,1.7,0.8c0.4,0.7,0.3,1.6,0.1,2.8h4.1c0.4-2.4,0.3-4.3-0.8-5.6C48.5,1.2,47.1,0.6,45,0.6z"/>
<path id="path12_fill" class="st0" d="M237.3,3.6l-0.8,4.2l4.4-2.9l-3.7,20.6h3.8l4.5-25h-3.8L237.3,3.6z"/>
<path id="path13_fill" class="st0" d="M217.5,25.6h4l1.9-10.8h5.7l0.6-3.5H224l1.2-7.1h6.6l0.6-3.5h-10.6L217.5,25.6z"/>
</svg>
