<svg width="255" height="26" viewBox="0 0 255 26" version="1.1" xmlns="http://www.w3.org/2000/svg" xmlns:xlink="http://www.w3.org/1999/xlink">
<title>logo</title>
<desc>Created using Figma</desc>
<g id="Canvas" transform="translate(-9794 3095)">
<g id="logo">
<g id="Path">
<use xlink:href="#path0_fill" transform="translate(9920 -3095)" fill="#344B8E"/>
</g>
<g id="Path">
<use xlink:href="#path1_fill" transform="translate(9991 -3095)" fill="#344B8E"/>
</g>
<g id="Path">
<use xlink:href="#path2_fill" transform="translate(9970 -3095)" fill="#344B8E"/>
</g>
<g id="Combined Shape">
<use xlink:href="#path3_fill" transform="translate(9953 -3095)" fill="#344B8E"/>
</g>
<g id="Path">
<use xlink:href="#path4_fill" transform="translate(9939 -3095)" fill="#344B8E"/>
</g>
<g id="Combined Shape">
<use xlink:href="#path5_fill" transform="translate(9901 -3095)" fill="#344B8E"/>
</g>
<g id="Path">
<use xlink:href="#path6_fill" transform="translate(9886 -3095)" fill="#344B8E"/>
</g>
<g id="Path">
<use xlink:href="#path7_fill" transform="translate(9871 -3095)" fill="#344B8E"/>
</g>
<g id="Path">
<use xlink:href="#path8_fill" transform="translate(9856 -3095)" fill="#344B8E"/>
</g>
<g id="Path">
<use xlink:href="#path9_fill" transform="translate(9845 -3095)" fill="#344B8E"/>
</g>
<g id="Combined Shape">
<use xlink:href="#path10_fill" transform="translate(10043 -3095)" fill="#344B8E"/>
</g>
<g id="Path">
<use xlink:href="#path11_fill" transform="translate(9794 -3095)" fill="#344B8E"/>
</g>
<g id="Path">
<use xlink:href="#path12_fill" transform="translate(10030 -3095)" fill="#344B8E"/>
</g>
<g id="Path">
<use xlink:href="#path13_fill" transform="translate(10011 -3095)" fill="#344B8E"/>
</g>
</g>
</g>
<defs>
<path id="path0_fill" fill-rule="evenodd" d="M 10.4496 0.00584843L 10.4427 0.00584843C 10.4427 0.00584843 6.01711 -0.318009 3.67733 3.8542C 3.15367 4.76645 2.7879 5.80902 2.58098 6.96051C 2.54764 7.14043 2.52215 7.30868 2.49665 7.4779C 2.49665 7.4779 1.99947 9.76435 2.74475 11.3263C 3.16446 12.255 3.89601 12.857 5.1012 13.3783L 7.96856 14.6339C 9.86706 15.4226 10.1897 16.1044 9.69937 18.8285C 9.45422 20.191 9.15218 21.0517 8.48633 21.6615C 7.99308 22.1283 7.3184 22.3792 6.3515 22.3792C 5.42481 22.3792 4.84624 22.0913 4.54519 21.6975C 4.06762 21.0517 4.08821 20.0782 4.24217 18.8139C 4.29807 18.3646 4.51282 17.0234 4.51282 17.0234L 0.499109 17.0526L 0.250029 18.6738C 0.250029 18.6738 0.0431162 20.1336 0.00291043 21.2511C -0.0235666 21.9513 0.130392 22.6544 0.473612 23.274C 1.10318 24.4099 2.54764 26 5.70037 26C 8.04015 26 9.90628 25.3173 11.1625 24.3156C 12.7256 23.059 13.4111 21.3016 13.8818 18.6865C 14.6555 14.3839 14.0916 12.7695 11.1635 11.5149L 8.26471 10.2963C 6.53978 9.57762 6.3211 8.9338 6.69472 6.8545C 6.89477 5.74288 7.27232 4.88218 7.85187 4.34437C 8.33728 3.91353 8.90899 3.62663 9.76213 3.62663C 10.6516 3.62663 11.1939 3.91353 11.4812 4.38132C 11.9156 5.06016 11.8205 6.00255 11.6145 7.15016L 15.7714 7.15016C 16.2098 4.71102 16.0646 2.83887 14.9232 1.54636C 14.0269 0.543665 12.5648 0.00584843 10.4496 0.00584843Z"/>
<path id="path1_fill" fill-rule="evenodd" d="M 0 25L 10.6102 25L 11.2329 21.455L 4.59706 21.455L 5.8734 14.1858L 11.5864 14.1858L 12.2091 10.6389L 6.49609 10.6389L 7.74242 3.54503L 14.3773 3.54503L 15 0L 4.38981 0L 0 25Z"/>
<path id="path2_fill" fill-rule="evenodd" d="M 11.3582 14.8526L 8.01083 0L 4.4288 0L 0 25L 4.00967 25L 6.64179 10.1474L 10.027 25L 13.5712 25L 18 0L 13.9894 0L 11.3582 14.8526Z"/>
<path id="path3_fill" fill-rule="evenodd" d="M 10.8857 13.0006C 10.0483 17.6428 9.47168 20.2148 8.47443 21.4286C 7.99884 22.0001 7.29773 22.3935 6.29655 22.3935C 5.29439 22.3935 4.77076 22.0001 4.50208 21.4286C 3.94315 20.2148 4.25988 17.6428 5.0973 13.0006C 5.9357 8.35836 6.54758 5.78635 7.54581 4.57155C 8.02042 4 8.68525 3.60669 9.68741 3.60669C 10.6886 3.60669 11.2485 4 11.5172 4.57155C 12.0761 5.78635 11.7241 8.35836 10.8857 13.0006ZM 10.3383 0C 7.88877 0 6.1247 0.929021 4.82346 2.17773C 2.71227 4.21402 2.03076 6.96524 0.941335 13.0005C -0.148093 19.0348 -0.459919 21.787 0.91682 23.8223C 1.76699 25.071 3.1957 26 5.64519 26C 8.09469 26 9.8568 25.071 11.158 23.8223C 13.3006 21.8228 13.9527 19.0348 15.0421 13.0005C 16.1315 6.96524 16.4855 4.17817 15.0647 2.17773C 14.2155 0.929021 12.7878 0 10.3383 0Z"/>
<path id="path4_fill" fill-rule="evenodd" d="M 0 3.54503L 4.19664 3.54503L 0.452936 25L 4.40354 25L 8.14725 3.54503L 12.3812 3.54503L 13 0L 0.619758 0L 0 3.54503Z"/>
<path id="path5_fill" fill-rule="evenodd" d="M 11.8215 7.37462C 11.4621 9.44422 10.8424 11.2005 8.73975 11.2005L 6.32031 11.2005L 7.64767 3.5459L 10.0671 3.5459C 12.1698 3.5459 12.1809 5.3012 11.8215 7.37462ZM 10.6448 0L 4.33592 0L 0 25L 3.9265 25L 5.70496 14.7472L 7.91321 14.7472L 9.39618 25L 13.4968 25L 11.7054 13.9034C 14.1962 12.6757 15.2114 10.4642 15.7477 7.37457C 16.6434 2.21151 15.203 0 10.6448 0Z"/>
<path id="path6_fill" fill-rule="evenodd" d="M 0 25L 10.6107 25L 11.2334 21.4532L 4.59742 21.4532L 5.8736 14.1872L 11.5869 14.1872L 12.2095 10.6385L 6.49622 10.6385L 7.74145 3.54585L 14.3783 3.54585L 15 0L 4.38926 0L 0 25Z"/>
<path id="path7_fill" fill-rule="evenodd" d="M 11.4127 0L 4.48189 18.9607L 4.58734 0L 0 0L 1.20424 25L 5.53043 25L 16 0L 11.4127 0Z"/>
<path id="path8_fill" fill-rule="evenodd" d="M 8.93538 0L 4.6886 0L 0 25L 11.3348 25L 12 21.4532L 4.911 21.4532L 8.93538 0Z"/>
<path id="path9_fill" fill-rule="evenodd" d="M 0 25L 4.27601 25L 9 0L 4.72298 0L 0 25Z"/>
<path id="path10_fill" fill-rule="evenodd" d="M 3.73394 2.45829C 3.68417 2.72017 3.57239 2.90672 3.33486 2.90672L 2.5498 2.90672L 2.72358 2.04663L 3.50952 2.04663C 3.74617 2.04663 3.78372 2.22062 3.73394 2.45829ZM 3.97148 1.34717L 2.02586 1.34717L 1.32812 4.61533L 2.17519 4.61533L 2.40049 3.59291L 2.69914 3.59291C 2.91134 3.59291 3.12354 4.20367 3.16022 4.61533L 4.11993 4.61533C 4.03261 3.94179 3.82128 3.58035 3.5593 3.44224C 4.08238 3.44224 4.45701 3.18125 4.61944 2.43327C 4.74344 1.83416 4.58189 1.34717 3.97148 1.34717ZM 4.98019 2.99366C 4.60731 4.77751 3.98381 5.21428 2.51236 5.21428C 1.0907 5.21428 0.654943 4.77751 1.0287 2.99366C 1.42778 1.09859 2.03906 0.773926 3.45985 0.773926C 4.93042 0.773926 5.37927 1.09859 4.98019 2.99366ZM 3.62264 0C 1.70234 0 0.64308 0.649327 0.143576 2.99372C -0.341956 5.30045 0.406427 6 2.35117 6C 4.30815 6 5.36741 5.30045 5.85381 2.99372C 6.35244 0.649327 5.56739 0 3.62264 0Z"/>
<path id="path11_fill" fill-rule="evenodd" d="M 44.5089 0.000972763L 44.5109 0L 4.64682 0L 3.95862 3.84922L 37.7507 3.84922C 37.2302 4.76167 36.8666 5.80447 36.6609 6.95623C 36.6287 7.13619 36.6034 7.30447 36.5771 7.47374L 3.31136 7.47374L 2.62316 11.322L 36.7632 11.322C 37.1804 12.2529 37.9691 12.8541 39.1661 13.3765L 42.0164 14.6313C 43.9036 15.4202 44.2243 16.1031 43.7379 18.8268C 43.4942 20.1897 43.193 21.0496 42.5311 21.6595C 42.0408 22.1265 41.3711 22.3784 40.4099 22.3784C 39.4888 22.3784 38.9127 22.0914 38.6134 21.6965C 38.1396 21.0516 38.2079 20.0214 38.358 18.6732L 38.7499 14.8239L 1.99735 14.8239L 1.31012 18.6732L 34.3214 18.6732C 34.3214 18.6732 33.988 21.2072 34.1206 22.1508L 0.688202 22.1508L 0 26L 39.7568 26L 39.7597 26C 42.0875 26 43.9435 25.3181 45.1922 24.3142C 46.7451 23.0584 47.4274 21.3016 47.8944 18.6848C 48.6635 14.3813 48.104 12.7665 45.1932 11.5126L 42.3117 10.2928C 40.5961 9.5749 40.3787 8.92996 40.7511 6.84922C 40.95 5.73833 41.3243 4.87743 41.9014 4.33949C 42.3829 3.90856 42.9512 3.6216 43.8003 3.6216C 44.6834 3.6216 45.2225 3.90856 45.5081 4.37549C 45.9399 5.05642 45.8463 5.99805 45.6407 7.14591L 49.7728 7.14591C 50.2085 4.70623 50.0643 2.83268 48.9296 1.54086C 48.0435 0.542801 46.5969 0.00583658 44.5089 0.000972763Z"/>
<path id="path12_fill" fill-rule="evenodd" d="M 0.754142 3.01833L 0 7.23198L 4.38626 4.35271L 0.692014 25L 4.52676 25L 9 0L 5.16621 0L 0.754142 3.01833Z"/>
<path id="path13_fill" fill-rule="evenodd" d="M 0 25L 3.97506 25L 5.87397 14.1858L 11.5876 14.1858L 12.2102 10.6389L 6.49662 10.6389L 7.74194 3.54503L 14.3773 3.54503L 15 0L 4.39047 0L 0 25Z"/>
</defs>
</svg>
