<svg width="120" height="54" viewBox="0 0 120 54" fill="none" xmlns="http://www.w3.org/2000/svg">
<rect width="120" height="54" fill="black" fill-opacity="0"/>
<path fill-rule="evenodd" clip-rule="evenodd" d="M113.018 33.5475H114.868V36.3763H115.772L117.579 33.5475H119.634L117.274 37.072V37.1011L119.926 40.9448H117.783L115.83 37.9423H114.868V40.9448H113.018V33.5475ZM109.607 36.3323C109.592 35.3461 108.952 34.766 108.121 34.766C107.173 34.766 106.503 35.3901 106.328 36.3323H109.607ZM108.165 33.3737C110.292 33.3737 111.458 34.9255 111.458 36.8834C111.458 37.116 111.429 37.3621 111.4 37.5947H106.284C106.401 38.8852 107.392 39.5526 108.514 39.5526C109.272 39.5526 110.044 39.2185 110.642 38.7398L111.371 40.0604C110.613 40.7271 109.447 41.1189 108.383 41.1189C105.92 41.1189 104.375 39.349 104.375 37.2465C104.375 34.9695 105.935 33.3737 108.165 33.3737ZM95.8906 39.393C96.8085 39.2625 97.4499 38.4937 97.4499 35.8684V33.5475H102.871V40.9448H101.021V35.0418H99.2134V35.8684C99.2134 39.088 98.3539 40.9448 95.8906 41.0175V39.393ZM93.1641 36.3323C93.1495 35.3461 92.5081 34.766 91.6771 34.766C90.73 34.766 90.0597 35.3901 89.8848 36.3323H93.1641ZM91.7209 33.3737C93.8489 33.3737 95.0148 34.9255 95.0148 36.8834C95.0148 37.116 94.9856 37.3621 94.9563 37.5947H89.8409C89.9574 38.8852 90.9487 39.5526 92.0708 39.5526C92.8287 39.5526 93.6012 39.2185 94.1984 38.7398L94.9271 40.0604C94.1692 40.7271 93.0036 41.1189 91.9393 41.1189C89.4763 41.1189 87.9316 39.349 87.9316 37.2465C87.9316 34.9695 89.4909 33.3737 91.7209 33.3737ZM76.4883 33.5475H78.2521V39.3781H80.5693V33.5475H82.3328V39.3781H84.65V33.5475H86.4138V40.9448H76.4883V33.5475ZM70.9234 39.5526C72.1331 39.5526 73.1387 38.6242 73.1387 37.2465C73.1387 35.8826 72.1331 34.9404 70.9234 34.9404C69.7136 34.9404 68.7227 35.8826 68.7227 37.2465C68.7227 38.6242 69.7136 39.5526 70.9234 39.5526ZM70.9079 33.3737C73.1816 33.3737 75.0032 34.9837 75.0032 37.2465C75.0032 39.5235 73.1816 41.1189 70.9225 41.1189C68.6634 41.1189 66.8418 39.5235 66.8418 37.2465C66.8418 34.9837 68.6634 33.3737 70.9079 33.3737ZM58.8242 30.6471H60.7046V34.8383H62.0451L64.4788 30.6471H66.5192L63.5901 35.5496V35.5787L66.6941 40.9448H64.5665L62.0451 36.4486H60.7046V40.9448H58.8242V30.6471Z" fill="white"/>
<path fill-rule="evenodd" clip-rule="evenodd" d="M24.0788 47.9281C10.8569 47.9281 0.138672 37.2597 0.138672 24.1013C0.138672 10.9433 10.8569 0.276245 24.0788 0.276245C37.3004 0.276245 48.0194 10.9433 48.0194 24.1013C48.0194 28.5726 46.7825 32.7566 44.6298 36.3313C44.5599 36.4479 44.3825 36.4074 44.3637 36.2728C43.5425 30.4176 39.9481 27.1914 34.7164 26.2506C34.2625 26.1689 34.178 25.8906 34.7783 25.839C36.3741 25.7016 38.6482 25.7248 39.8048 25.9325C39.8743 25.3319 39.9049 24.7202 39.9049 24.1013C39.9049 15.4032 32.8194 8.35167 24.0788 8.35167C15.3383 8.35167 8.25311 15.4032 8.25311 24.1013C8.25311 32.7998 15.3383 39.8513 24.0788 39.8513C24.3282 39.8513 24.5759 39.8544 24.8221 39.843C24.5581 38.3134 24.4768 36.7584 24.5248 35.5839C24.5637 34.623 24.7595 34.4911 25.195 35.2388C27.3853 38.9949 30.5279 42.4163 36.6371 43.7559C41.6319 44.8512 46.6402 46.1468 52.0552 52.9508C52.5366 53.5556 51.802 54.1603 51.25 53.6732C45.7401 48.815 40.7616 47.249 36.1735 47.249C31.0663 47.249 27.5867 47.9281 24.0788 47.9281ZM36.2302 37.9101C35.7492 37.9101 35.3478 38.0769 35.1009 38.3802C34.4689 39.1562 34.753 40.5218 35.7214 41.364C36.144 41.7313 36.753 41.9511 37.3506 41.9511C37.9593 41.9511 38.4668 41.7237 38.7802 41.3121C39.3436 40.5602 39.0198 39.4951 37.9548 38.5989C37.4275 38.1548 36.8153 37.9101 36.2302 37.9101ZM41.539 34.0114C41.0802 33.8386 40.716 33.9764 40.5424 34.2924C40.2791 34.7708 40.4736 35.7165 41.0044 36.5407C41.5421 37.3756 41.9981 37.7993 42.3612 37.7993C42.6941 37.7993 43.0256 37.367 42.8691 36.3226C42.7758 35.6989 42.4273 34.3457 41.539 34.0114ZM69.4465 21.6336L67.5199 19.3272C67.3178 19.0855 67.4907 18.7186 67.8069 18.7186H71.8382C72.0302 18.1499 72.1387 17.5424 72.1387 16.9113C72.1387 14.022 69.9776 11.5307 67.0114 11.5307C64.0455 11.5307 61.8848 14.022 61.8848 16.9113C61.8848 19.8007 64.0455 22.2567 67.0114 22.2567C67.9102 22.2567 68.7335 22.0282 69.4465 21.6336ZM78.1669 25.5316C78.3759 25.7622 78.2044 26.1333 77.889 26.1333H73.4893C73.3105 26.1333 73.1408 26.054 73.026 25.9169L72.2806 25.0245C70.762 26.0045 68.9537 26.5763 67.0124 26.5763C61.6576 26.5763 57.3008 22.2408 57.3008 16.9114C57.3008 11.582 61.6576 7.24606 67.0124 7.24606C72.3679 7.24606 76.7244 11.582 76.7244 16.9114C76.7244 18.8325 76.1557 20.6228 75.1811 22.1293L78.1669 25.5316ZM118.806 7.69086H115.216C114.953 7.69086 114.738 7.90374 114.738 8.16647V25.6562C114.738 25.9186 114.953 26.1315 115.216 26.1315H118.806C119.07 26.1315 119.284 25.9186 119.284 25.6562V8.16647C119.284 7.90374 119.07 7.69086 118.806 7.69086ZM112.764 7.69086H108.747C108.537 7.69086 108.352 7.82655 108.29 8.0249L105.112 18.3607L101.618 8.01347C101.553 7.82101 101.371 7.69086 101.165 7.69086H98.3616C98.1561 7.69086 97.9734 7.82101 97.9088 8.01347L94.4152 18.3607L91.2364 8.0249C91.1752 7.82655 90.9898 7.69086 90.7794 7.69086H86.7627C86.6089 7.69086 86.4649 7.7639 86.3752 7.88678C86.2854 8.00966 86.2611 8.16786 86.3098 8.31186L92.2096 25.811C92.2747 26.0034 92.4573 26.1332 92.6625 26.1332H95.8507C96.0562 26.1332 96.2388 26.0034 96.3039 25.8113L99.7634 15.5877L103.222 25.8113C103.288 26.0034 103.47 26.1332 103.676 26.1332H106.864C107.069 26.1332 107.252 26.0034 107.317 25.811L113.217 8.31186C113.266 8.16786 113.241 8.00966 113.152 7.88678C113.061 7.7639 112.917 7.69086 112.764 7.69086ZM84.7899 8.16647V25.6562C84.7899 25.9186 84.576 26.1315 84.3123 26.1315H80.7217C80.4584 26.1315 80.2441 25.9186 80.2441 25.6562V8.16647C80.2441 7.90374 80.4584 7.69086 80.7217 7.69086H84.3123C84.576 7.69086 84.7899 7.90374 84.7899 8.16647Z" fill="white"/>
</svg>
