<svg width="55" height="26" viewBox="0 0 55 26" fill="none" xmlns="http://www.w3.org/2000/svg">
<rect width="55" height="26" fill="black" fill-opacity="0"/>
<path fill-rule="evenodd" clip-rule="evenodd" d="M51.8008 16.1525H52.6491V17.5145H53.0634L53.8916 16.1525H54.8334L53.7514 17.8495V17.8635L54.967 19.7142H53.9852L53.09 18.2685H52.6491V19.7142H51.8008V16.1525ZM50.2372 17.4933C50.2305 17.0185 49.9369 16.7392 49.556 16.7392C49.1218 16.7392 48.8144 17.0397 48.7344 17.4933H50.2372ZM49.5767 16.0688C50.5519 16.0688 51.0863 16.816 51.0863 17.7587C51.0863 17.8707 51.0729 17.9892 51.0597 18.1012H48.7149C48.7683 18.7225 49.2227 19.0438 49.7369 19.0438C50.0842 19.0438 50.4382 18.883 50.7121 18.6525L51.0463 19.2883C50.6989 19.6093 50.1645 19.798 49.6768 19.798C48.548 19.798 47.8398 18.9458 47.8398 17.9335C47.8398 16.8372 48.5547 16.0688 49.5767 16.0688ZM43.9492 18.967C44.3699 18.9042 44.6639 18.534 44.6639 17.27V16.1525H47.1488V19.7142H46.3005V16.872H45.4722V17.27C45.4722 18.8202 45.0782 19.7142 43.9492 19.7492V18.967ZM42.6983 17.4933C42.6916 17.0185 42.3977 16.7392 42.0168 16.7392C41.5827 16.7392 41.2755 17.0397 41.1953 17.4933H42.6983ZM42.0375 16.0688C43.0128 16.0688 43.5472 16.816 43.5472 17.7587C43.5472 17.8707 43.5338 17.9892 43.5204 18.1012H41.1758C41.2292 18.7225 41.6836 19.0438 42.1979 19.0438C42.5453 19.0438 42.8993 18.883 43.1731 18.6525L43.507 19.2883C43.1597 19.6093 42.6254 19.798 42.1376 19.798C41.0088 19.798 40.3008 18.9458 40.3008 17.9335C40.3008 16.8372 41.0155 16.0688 42.0375 16.0688ZM35.0586 16.1525H35.867V18.9599H36.9291V16.1525H37.7373V18.9599H38.7994V16.1525H39.6078V19.7142H35.0586V16.1525ZM32.5047 19.0438C33.0592 19.0438 33.5201 18.5968 33.5201 17.9335C33.5201 17.2768 33.0592 16.8232 32.5047 16.8232C31.9503 16.8232 31.4961 17.2768 31.4961 17.9335C31.4961 18.5968 31.9503 19.0438 32.5047 19.0438ZM32.5003 16.0688C33.5425 16.0688 34.3774 16.844 34.3774 17.9335C34.3774 19.0298 33.5425 19.798 32.507 19.798C31.4716 19.798 30.6367 19.0298 30.6367 17.9335C30.6367 16.844 31.4716 16.0688 32.5003 16.0688ZM26.9609 14.756H27.8228V16.774H28.4372L29.5526 14.756H30.4878L29.1453 17.1165V17.1305L30.568 19.7142H29.5928L28.4372 17.5493H27.8228V19.7142H26.9609V14.756Z" fill="#434343"/>
<path fill-rule="evenodd" clip-rule="evenodd" d="M11.0351 23.0765C4.97504 23.0765 0.0625 17.9398 0.0625 11.6043C0.0625 5.269 4.97504 0.132996 11.0351 0.132996C17.095 0.132996 22.0078 5.269 22.0078 11.6043C22.0078 13.7572 21.4409 15.7717 20.4543 17.4928C20.4222 17.549 20.3409 17.5295 20.3323 17.4647C19.9559 14.6455 18.3085 13.0922 15.9106 12.6392C15.7026 12.5998 15.6638 12.4658 15.939 12.441C16.6704 12.3748 17.7127 12.386 18.2428 12.486C18.2747 12.1968 18.2887 11.9023 18.2887 11.6043C18.2887 7.41633 15.0412 4.02116 11.0351 4.02116C7.02901 4.02116 3.78162 7.41633 3.78162 11.6043C3.78162 15.7925 7.02901 19.1877 11.0351 19.1877C11.1494 19.1877 11.2629 19.1892 11.3758 19.1837C11.2548 18.4472 11.2175 17.6985 11.2395 17.133C11.2573 16.6703 11.3471 16.6068 11.5467 16.9668C12.5505 18.7753 13.9909 20.4227 16.7909 21.0677C19.0802 21.595 21.3757 22.2188 23.8576 25.4948C24.0782 25.786 23.7415 26.0772 23.4885 25.8427C20.9631 23.5035 18.6814 22.7495 16.5784 22.7495C14.2377 22.7495 12.6428 23.0765 11.0351 23.0765ZM16.6058 18.253C16.3853 18.253 16.2013 18.3333 16.0881 18.4793C15.7985 18.853 15.9287 19.5105 16.3725 19.916C16.5662 20.0928 16.8454 20.1987 17.1193 20.1987C17.3983 20.1987 17.6308 20.0892 17.7745 19.891C18.0327 19.529 17.8843 19.0162 17.3962 18.5847C17.1545 18.3708 16.8739 18.253 16.6058 18.253ZM19.0376 16.3758C18.8273 16.2927 18.6604 16.359 18.5808 16.5112C18.4601 16.7415 18.5492 17.1968 18.7925 17.5937C19.039 17.9957 19.248 18.1997 19.4144 18.1997C19.567 18.1997 19.7189 17.9915 19.6472 17.4887C19.6045 17.1883 19.4447 16.5368 19.0376 16.3758ZM31.8291 10.4162L30.946 9.30565C30.8534 9.18932 30.9327 9.01265 31.0776 9.01265H32.9253C33.0133 8.73882 33.063 8.44632 33.063 8.14249C33.063 6.75132 32.0725 5.55182 30.713 5.55182C29.3536 5.55182 28.3633 6.75132 28.3633 8.14249C28.3633 9.53365 29.3536 10.7162 30.713 10.7162C31.1249 10.7162 31.5023 10.6062 31.8291 10.4162ZM35.8253 12.293C35.9212 12.404 35.8426 12.5827 35.698 12.5827H33.6815C33.5995 12.5827 33.5217 12.5445 33.4691 12.4785L33.1275 12.0488C32.4314 12.5207 31.6026 12.796 30.7129 12.796C28.2586 12.796 26.2617 10.7085 26.2617 8.1425C26.2617 5.5765 28.2586 3.48883 30.7129 3.48883C33.1675 3.48883 35.1642 5.5765 35.1642 8.1425C35.1642 9.0675 34.9036 9.9295 34.4569 10.6548L35.8253 12.293ZM54.4505 3.703H52.8048C52.6841 3.703 52.5859 3.8055 52.5859 3.932V12.353C52.5859 12.4793 52.6841 12.5818 52.8048 12.5818H54.4505C54.5712 12.5818 54.6694 12.4793 54.6694 12.353V3.932C54.6694 3.8055 54.5712 3.703 54.4505 3.703ZM51.6829 3.703H49.8419C49.7454 3.703 49.6606 3.76834 49.6324 3.86384L48.1756 8.84034L46.5744 3.85834C46.5446 3.76567 46.4611 3.703 46.3667 3.703H45.0819C44.9877 3.703 44.904 3.76567 44.8744 3.85834L43.2731 8.84034L41.8162 3.86384C41.7881 3.76834 41.7032 3.703 41.6067 3.703H39.7657C39.6953 3.703 39.6293 3.73817 39.5881 3.79734C39.547 3.8565 39.5359 3.93267 39.5582 4.002L42.2623 12.4275C42.2921 12.5202 42.3758 12.5827 42.4698 12.5827H43.9311C44.0253 12.5827 44.109 12.5202 44.1388 12.4277L45.7244 7.50517L47.3098 12.4277C47.3396 12.5202 47.4233 12.5827 47.5175 12.5827H48.9788C49.0728 12.5827 49.1567 12.5202 49.1864 12.4275L51.8906 4.002C51.9129 3.93267 51.9018 3.8565 51.8606 3.79734C51.8193 3.73817 51.7533 3.703 51.6829 3.703ZM38.8608 3.932V12.353C38.8608 12.4793 38.7628 12.5818 38.6419 12.5818H36.9962C36.8755 12.5818 36.7773 12.4793 36.7773 12.353V3.932C36.7773 3.8055 36.8755 3.703 36.9962 3.703H38.6419C38.7628 3.703 38.8608 3.8055 38.8608 3.932Z" fill="#E79B3D"/>
</svg>
