<svg width="89" height="26" viewBox="0 0 89 26" version="1.1" xmlns="http://www.w3.org/2000/svg" xmlns:xlink="http://www.w3.org/1999/xlink">
<title>tablet-logo</title>
<desc>Created using Figma</desc>
<g id="Canvas" transform="translate(-252 55)">
<g id="tablet-logo">
<g id="Combined Shape">
<use xlink:href="#path0_fill" transform="translate(335 -55)" fill="#344B8E"/>
</g>
<g id="Path">
<use xlink:href="#path1_fill" transform="translate(252 -55)" fill="#344B8E"/>
</g>
<g id="Path">
<use xlink:href="#path2_fill" transform="translate(322 -55)" fill="#344B8E"/>
</g>
<g id="Path">
<use xlink:href="#path3_fill" transform="translate(303 -55)" fill="#344B8E"/>
</g>
</g>
</g>
<defs>
<path id="path0_fill" fill-rule="evenodd" d="M 3.7344 2.4583C 3.68463 2.72018 3.57285 2.90673 3.33532 2.90673L 2.55026 2.90673L 2.72404 2.04664L 3.50997 2.04664C 3.74663 2.04664 3.78418 2.22063 3.7344 2.4583L 3.7344 2.4583ZM 3.97194 1.34708L 2.02632 1.34708L 1.32858 4.61525L 2.17564 4.61525L 2.40094 3.59282L 2.6996 3.59282C 2.9118 3.59282 3.124 4.20359 3.16068 4.61525L 4.12039 4.61525C 4.03306 3.9417 3.82174 3.58027 3.55976 3.44215C 4.08284 3.44215 4.45747 3.18116 4.61989 2.43318C 4.7439 1.83408 4.58234 1.34708 3.97194 1.34708L 3.97194 1.34708ZM 4.98056 2.99372C 4.60768 4.77758 3.98417 5.21435 2.51273 5.21435C 1.09107 5.21435 0.65531 4.77758 1.02906 2.99372C 1.42814 1.09865 2.03942 0.773991 3.46022 0.773991C 4.93078 0.773991 5.37964 1.09865 4.98056 2.99372L 4.98056 2.99372ZM 3.62264 0C 1.70234 0 0.64308 0.649327 0.143576 2.99372C -0.341956 5.30045 0.406427 6 2.35117 6C 4.30815 6 5.36741 5.30045 5.85381 2.99372C 6.35244 0.649327 5.56739 0 3.62264 0L 3.62264 0Z"/>
<path id="path1_fill" fill-rule="evenodd" d="M 44.5089 0.000972763L 44.5109 0L 4.64682 0L 3.95862 3.84922L 37.7507 3.84922C 37.2302 4.76167 36.8666 5.80447 36.6609 6.95623C 36.6287 7.13619 36.6034 7.30447 36.5771 7.47374L 3.31136 7.47374L 2.62316 11.322L 36.7632 11.322C 37.1804 12.2529 37.9691 12.8541 39.1661 13.3765L 42.0164 14.6313C 43.9036 15.4202 44.2243 16.1031 43.7379 18.8268C 43.4942 20.1897 43.193 21.0496 42.5311 21.6595C 42.0408 22.1265 41.3711 22.3784 40.4099 22.3784C 39.4888 22.3784 38.9127 22.0914 38.6134 21.6965C 38.1396 21.0516 38.2079 20.0214 38.358 18.6732L 38.7499 14.8239L 1.99735 14.8239L 1.31012 18.6732L 34.3214 18.6732C 34.3214 18.6732 33.988 21.2072 34.1206 22.1508L 0.688202 22.1508L 0 26L 39.7568 26L 39.7568 26L 39.7597 26C 42.0875 26 43.9435 25.3181 45.1922 24.3142C 46.7451 23.0584 47.4274 21.3016 47.8944 18.6848C 48.6635 14.3813 48.1039 12.7665 45.1932 11.5126L 42.3117 10.2928C 40.5961 9.5749 40.3787 8.92996 40.7511 6.84922C 40.95 5.73833 41.3243 4.87743 41.9014 4.33949C 42.3829 3.90856 42.9512 3.6216 43.8003 3.6216C 44.6834 3.6216 45.2225 3.90856 45.5081 4.37549C 45.9399 5.05642 45.8463 5.99805 45.6407 7.14591L 49.7728 7.14591C 50.2085 4.70623 50.0643 2.83268 48.9296 1.54086C 48.0435 0.542801 46.5969 0.00583658 44.5089 0.000972763L 44.5089 0.000972763Z"/>
<path id="path2_fill" fill-rule="evenodd" d="M 0.754142 3.01833L 0 7.23198L 4.38626 4.35271L 0.692014 25L 4.52676 25L 9 0L 5.16621 0L 0.754142 3.01833Z"/>
<path id="path3_fill" fill-rule="evenodd" d="M 0 25L 3.97506 25L 5.87397 14.1858L 11.5876 14.1858L 12.2102 10.6389L 6.49662 10.6389L 7.74194 3.54503L 14.3773 3.54503L 15 0L 4.39047 0L 0 25Z"/>
</defs>
</svg>
