<svg width="120" height="38" viewBox="0 0 120 38" fill="none" xmlns="http://www.w3.org/2000/svg">
<rect width="120" height="38" fill="black" fill-opacity="0"/>
<path fill-rule="evenodd" clip-rule="evenodd" d="M25.1953 25.7657L34.6621 0L44.8867 0.00415039L29.6934 37.886H19.4707L10.8008 5.28601C16.9258 8.45068 22.4141 14.8217 24.1641 20.6845L25.1953 25.7657ZM48.7812 0L42.7363 37.9238H52.3984L58.4414 0H48.7812ZM77.9277 15.4481C74.5527 13.7671 72.4824 12.6325 72.4824 10.9133C72.5234 9.35007 74.2324 7.7486 78.0488 7.7486C81.1875 7.6691 83.4961 8.41281 85.2461 9.1528L86.123 9.54733L87.4375 1.61273C85.5293 0.868988 82.502 0.04953 78.7637 0.04953C69.2227 0.04953 62.502 5.05084 62.4609 12.2039C62.3828 17.4824 67.2715 20.4115 70.9316 22.1686C74.668 23.9712 75.9414 25.1398 75.9414 26.7413C75.9004 29.2001 72.918 30.3347 70.1367 30.3347C66.2832 30.3347 64.2129 29.7503 61.0684 28.3802L59.7969 27.7959L58.4453 36.0418C60.7148 37.059 64.8887 37.9542 69.2227 38C79.3633 38 85.9609 33.0744 86.0449 25.4511C86.0781 21.2693 83.5 18.0663 77.9277 15.4481ZM104.732 0.117371H112.209L120 37.9542H111.057L109.607 30.3992H98.2617L95.4688 37.9238H85.3281L99.6816 3.16843C100.68 0.785339 102.43 0.117371 104.732 0.117371ZM101.074 22.8054C101.27 22.8246 104.967 10.5221 104.967 10.5221L107.91 22.8054H101.074Z" fill="white"/>
<path d="M21.3353 4.9491C20.601 2.07927 18.2589 0.143752 15.0781 0.102448H0.153699L0 0.798839C11.6421 3.68353 21.4138 12.5598 24.584 20.9091L21.3353 4.9491Z" fill="white"/>
</svg>
