<svg width="55" height="17" viewBox="0 0 55 17" fill="none" xmlns="http://www.w3.org/2000/svg">
<rect width="55" height="17" fill="black" fill-opacity="0"/>
<path fill-rule="evenodd" clip-rule="evenodd" d="M11.5469 11.5268L15.8867 0L20.5703 0.00186157L13.6094 16.949H8.92188L4.94922 2.36478C7.75781 3.78058 10.2734 6.63077 11.0742 9.2536L11.5469 11.5268ZM22.3555 0L19.5859 16.9659H24.0156L26.7852 0H22.3555ZM35.7148 6.91098C34.168 6.15894 33.2188 5.6514 33.2188 4.88226C33.2383 4.18292 34.0195 3.46646 35.7695 3.46646C37.2109 3.43091 38.2656 3.76364 39.0703 4.09467L39.4727 4.27118L40.0742 0.721497C39.1992 0.388763 37.8125 0.0221558 36.0977 0.0221558C31.7227 0.0221558 28.6445 2.25958 28.625 5.45963C28.5898 7.82108 30.832 9.13147 32.5078 9.91754C34.2227 10.7239 34.8047 11.2468 34.8047 11.9632C34.7852 13.0632 33.418 13.5708 32.1445 13.5708C30.3789 13.5708 29.4297 13.3094 27.9883 12.6964L27.4062 12.435L26.7852 16.124C27.8242 16.579 29.7383 16.9795 31.7266 17C36.3711 17 39.3984 14.7964 39.4336 11.386C39.4492 9.5152 38.2695 8.08228 35.7148 6.91098ZM48.0039 0.0524902H51.4297L55 16.9795H50.9023L50.2383 13.5996H45.0391L43.7578 16.9659H39.1094L45.6875 1.41745C46.1445 0.351318 46.9492 0.0524902 48.0039 0.0524902ZM46.3242 10.2024C46.4141 10.211 48.1094 4.70724 48.1094 4.70724L49.457 10.2024H46.3242Z" fill="#26579B"/>
<path d="M9.7787 2.21408C9.44211 0.930207 8.36866 0.0643157 6.91079 0.0458374H0.0704452L0 0.357381C5.33594 1.6479 9.81468 5.61888 11.2677 9.35408L9.7787 2.21408Z" fill="#EDA941"/>
</svg>
