<svg width="60" height="60" viewBox="0 0 60 60" fill="none" xmlns="http://www.w3.org/2000/svg">
<rect width="60" height="60" fill="black" fill-opacity="0"/>
<path fill-rule="evenodd" clip-rule="evenodd" d="M57.1953 25.9102H58.7266C59.3633 25.9102 60 26.4245 60 27.1959V43.7878C60 44.5469 59.498 45.0612 58.7266 45.0612H57.3184V55.6653C57.3184 58.0898 55.4082 60 52.9844 60H4.21289C1.91016 60 0 58.0898 0 55.6653V15.5755C0 13.2612 1.75195 11.4122 3.90625 11.2408L3.95508 11.2286L47.6211 0H47.877C50.0449 0 51.832 1.91022 51.832 4.33469V11.2408H52.9844C55.2852 11.2408 57.1953 13.151 57.1953 15.5755V25.9102ZM49.3965 4.33472C49.3965 3.31839 48.7598 2.54694 48.123 2.4245L14.168 11.2286H49.3965V4.33472ZM54.7715 55.6653C54.7715 56.6816 54 57.5755 52.9824 57.5755H4.21094C3.19531 57.5755 2.42383 56.6816 2.42383 55.6653V15.5755C2.42383 14.5592 3.19531 13.6653 4.21094 13.6653H52.8477C53.8652 13.6653 54.6367 14.5592 54.6367 15.5755V25.9102H42C36.6367 25.9102 32.4238 30.1225 32.4238 35.4857C32.4238 40.849 36.7578 45.0612 42 45.0612H54.7715V55.6653ZM42 42.6367H57.4414V28.6041H42C38.1797 28.6041 34.9844 31.8 34.9844 35.6204C34.9844 39.4408 38.168 42.6367 42 42.6367Z" fill="white"/>
<path d="M40.5918 35.7429C40.5918 36.5143 41.2285 37.0163 41.8653 37.0163H43.0163C43.653 37.0163 44.2898 36.502 44.2898 35.7429C44.2898 34.9714 43.653 34.4694 43.0163 34.4694H41.8775C41.1061 34.4694 40.5918 34.9837 40.5918 35.7429H40.5918Z" fill="white"/>
</svg>
