<svg width="55" height="21" viewBox="0 0 55 21" fill="none" xmlns="http://www.w3.org/2000/svg">
<rect width="55" height="21" fill="black" fill-opacity="0"/>
<path fill-rule="evenodd" clip-rule="evenodd" d="M7.16354 1.67014H6.10736C4.51021 1.67014 2.96484 2.72356 2.96484 5.78121C2.96484 8.73578 4.38131 9.68656 6.10736 9.68656H7.16354V1.67014ZM5.51346 11.331L2.37094 18.3709H0.078125L3.53023 10.8426C1.90688 10.0204 0.824922 8.53029 0.824922 5.78121C0.824922 1.92707 3.27221 0 6.18334 0H9.14582V18.3709H7.16217V11.331H5.51346Z" fill="#D83932"/>
<path fill-rule="evenodd" clip-rule="evenodd" d="M47.6836 11.8963C47.6836 7.83642 49.2554 5.24164 52.2952 5.24164C53.4541 5.24164 54.124 5.55 54.6907 5.90935L54.4073 7.81114C53.8664 7.34828 53.0936 6.91178 52.2692 6.91178C50.8265 6.91178 49.7964 8.53028 49.7964 11.7934C49.7964 15.0306 50.5689 16.881 52.1919 16.881C53.1707 16.881 53.9179 16.4955 54.3816 16.0845L54.8452 17.5744C54.1497 18.1652 53.3254 18.5507 52.1403 18.5507C49.3581 18.5507 47.6836 16.3157 47.6836 11.8963ZM41.8102 11.9216V18.3709H39.8008V5.4212H41.8102V11.4079L44.9272 5.4212H46.9624L43.7423 11.5108L47.4258 18.3709H45.2363L41.8102 11.9216ZM32.3555 10.7143H35.6787C35.6787 8.50458 35.3179 6.88586 34.1589 6.88586C32.9222 6.88586 32.4844 8.40172 32.3555 10.7143ZM34.5737 18.5507C31.8946 18.5507 30.2461 16.4186 30.2461 12.4363C30.2461 8.27335 31.4054 5.24164 34.1616 5.24164C36.3255 5.24164 37.7424 6.86014 37.7424 11.2534V12.3587H32.3324C32.3324 15.288 33.1568 16.8296 34.7539 16.8296C35.8875 16.8296 36.7892 16.3157 37.3044 15.9561L37.7682 17.4969C36.9438 18.1397 35.8617 18.5507 34.5737 18.5507ZM26.0183 7.03992H23.7771V7.27156C23.7771 9.99492 23.6484 13.977 22.5664 16.7265H26.0183V7.03992ZM29.0337 20.9147H27.2307V18.3709H21.6663V20.9147H19.8633V16.7265H20.6619C21.8465 13.977 21.9754 9.9692 21.9754 6.52606V5.4212H28.0035V16.7265H29.0337V20.9147ZM18.704 5.4212V18.3709H16.7204V12.5644H13.7321V18.3709H11.7227V5.4212H13.7321V10.9193H16.7204V5.4212H18.704Z" fill="#2C2C2C"/>
</svg>
