<svg width="120" height="46" viewBox="0 0 120 46" fill="none" xmlns="http://www.w3.org/2000/svg">
<rect width="120" height="46" fill="black" fill-opacity="0"/>
<path fill-rule="evenodd" clip-rule="evenodd" d="M15.6237 3.65842H13.3193C9.83461 3.65842 6.46289 5.96593 6.46289 12.6636C6.46289 19.1355 9.55336 21.2182 13.3193 21.2182H15.6237V3.65842ZM12.0269 24.8203L5.17047 40.2411H0.167969L7.69984 23.7506C4.15797 21.9495 1.79734 18.6854 1.79734 12.6636C1.79734 4.2212 7.13688 0 13.4884 0H19.952V40.2411H15.6241V24.8203H12.0269Z" fill="white"/>
<path fill-rule="evenodd" clip-rule="evenodd" d="M104.039 26.0585C104.039 17.1655 107.468 11.4817 114.101 11.4817C116.629 11.4817 118.091 12.1571 119.327 12.9443L118.709 17.1101C117.529 16.0962 115.843 15.1401 114.044 15.1401C110.896 15.1401 108.649 18.6854 108.649 25.8332C108.649 32.9243 110.334 36.9774 113.875 36.9774C116.011 36.9774 117.641 36.133 118.653 35.2327L119.664 38.4964C118.147 39.7905 116.348 40.6349 113.763 40.6349C107.692 40.6349 104.039 35.7392 104.039 26.0585ZM91.226 26.1139V40.2411H86.8418V11.875H91.226V24.9888L98.0266 11.875H102.467L95.4415 25.2141L103.478 40.2411H98.7012L91.226 26.1139ZM70.5977 23.4694H77.8483C77.8483 18.6291 77.0612 15.0833 74.5323 15.0833C71.8342 15.0833 70.8789 18.4038 70.5977 23.4694ZM75.4323 40.6349C69.587 40.6349 65.9902 35.9645 65.9902 27.2414C65.9902 18.1226 68.5196 11.4817 74.5332 11.4817C79.2545 11.4817 82.3459 15.027 82.3459 24.6504V27.0715H70.5423C70.5423 33.488 72.3409 36.8648 75.8255 36.8648C78.2987 36.8648 80.266 35.7392 81.3901 34.9515L82.4021 38.3264C80.6035 39.7346 78.2424 40.6349 75.4323 40.6349ZM56.7716 15.4208H51.8816V15.9282C51.8816 21.8936 51.6009 30.6163 49.2402 36.639H56.7716V15.4208ZM63.348 45.8132H59.4142V40.2411H47.2736V45.8132H43.3398V36.639H45.0822C47.6669 30.6163 47.9481 21.8373 47.9481 14.2952V11.875H61.1003V36.639H63.348V45.8132ZM40.8102 11.875V40.2411H36.4822V27.5221H29.9623V40.2411H25.5781V11.875H29.9623V23.9186H36.4822V11.875H40.8102Z" fill="white"/>
</svg>
