<?xml version="1.0" encoding="utf-8"?>
<!-- Generator: Adobe Illustrator 22.1.0, SVG Export Plug-In . SVG Version: 6.00 Build 0)  -->
<svg version="1.1" id="Layer_1" xmlns="http://www.w3.org/2000/svg" xmlns:xlink="http://www.w3.org/1999/xlink" x="0px" y="0px"
	 viewBox="0 0 98 86.4" style="enable-background:new 0 0 98 86.4;" xml:space="preserve">
<style type="text/css">
	.st0{fill:#FFFFFF;}
</style>
<g>
	<path class="st0" d="M46.7,51.2c1.2-2.4,1.9-5.2,3.7-7.1c4.2-4.5,7-9.5,6.5-16c4.5,0,8.4,0,12.8,0c0,1.1,0,2.3,0,3.4
		c0.6,0.2,0.7,0.3,0.9,0.2c12.8-1.5,20.1,3,21.7,13.3c1.8,11.6-5.8,22-17.4,23.9c-3.3,0.5-6.6,0.7-10.3,1c-0.6,3.5-1.2,7-1.8,10.8
		c-4.3,0-8.3,0-12.9,0c1.6-11.3,3.2-22.4,4.7-33.5c-0.4-0.4-0.8-0.7-1.2-1.1c-1.3,2.4-2.6,4.7-3.9,7.1
		C48.4,52.3,47.5,51.8,46.7,51.2z M68,42c-0.8,5.8-1.5,11.1-2.3,16.7c5,0.4,9.5-0.3,11.3-4.8c1.1-2.9,1.2-7,0.1-9.8
		C75.6,40.5,71.7,41,68,42z"/>
	<path class="st0" d="M10.9,43.3c0.2,0.4,0.1,0.2,0.1,0.1c1-11.6,4.1-13.9,18.7-13.7c7.6,0.1,13.4,3.5,15.3,9
		c2,5.9,0.2,10.8-6.3,16.2c5.2,3,6.6,7.7,5.5,13.1c-1.2,5.9-5,9.7-10.6,11.6C24,83,14.7,81.5,5.5,77.4c0.7-3.8,1.3-7.2,1.8-10
		c5.6,1.1,10.8,2.3,16.1,3c1.7,0.2,4-0.3,5.1-1.4c1.2-1.1,2.3-3.6,1.9-5.1c-0.4-1.4-2.6-3-4.2-3.3c-3.4-0.5-6.9-0.2-10.7-0.2
		c0.6-3.9,1.1-7.2,1.7-10.9c3.5,0,6.6,0.1,9.7,0c3.1-0.2,5.6-1.6,5.4-5.2c-0.2-3.6-3.1-4.3-5.8-3.9C21.4,41.2,16.3,42.3,10.9,43.3z"
		/>
</g>
<g>
	<path class="st0" d="M19.7,11.7c0.4-0.2,0.8-0.5,1.1-0.9c0.6-0.7,0.8-1.6,0.8-2.7c0-1.6-0.6-2.8-1.7-3.5s-2.8-1.1-5.2-1.1H9.4V21
		h6.4c1.9,0,3.5-0.5,4.6-1.4s1.7-2.2,1.7-3.9c0-1.2-0.3-2.2-0.9-2.9C20.9,12.3,20.4,11.9,19.7,11.7z M17.3,9.8
		c-0.4,0.3-1.2,0.4-2.2,0.4H13V6.7h1.8c1.1,0,1.9,0.1,2.4,0.4c0.4,0.3,0.6,0.7,0.6,1.3C17.9,9.1,17.7,9.5,17.3,9.8z M13.1,13.4h2.2
		c1.1,0,1.9,0.2,2.4,0.5c0.4,0.3,0.7,0.8,0.7,1.5c0,0.8-0.2,1.3-0.7,1.6c-0.5,0.4-1.2,0.5-2.2,0.5h-2.4V13.4z"/>
	<path class="st0" d="M34.7,11.5c-1.2-0.9-2.8-1.3-5-1.3h-1.4V3.4h-3.7v17.5h5.2c2.1,0,3.8-0.5,5-1.4s1.8-2.3,1.8-4.1
		C36.5,13.7,35.9,12.4,34.7,11.5z M28.3,13.4h1.1c1.6,0,2.4,0.3,2.7,0.5c0.4,0.3,0.7,0.8,0.7,1.5c0,0.8-0.2,1.3-0.7,1.7
		c-0.5,0.4-1.3,0.6-2.4,0.6h-1.3v-4.3H28.3z"/>
	<rect x="37.8" y="3.4" class="st0" width="3.7" height="17.5"/>
	<path class="st0" d="M50,10.1h-1.5V6.7h7.4V3.4h-11v17.5h5.3c5.7,0,6.8-3,6.8-5.5C57,13,55.8,10.1,50,10.1z M48.5,13.4h1.1
		c1.7,0,2.5,0.3,2.9,0.5c0.5,0.3,0.7,0.8,0.7,1.5c0,0.8-0.2,1.3-0.7,1.6c-0.5,0.4-1.4,0.5-2.5,0.5h-1.4L48.5,13.4L48.5,13.4z"/>
	<path class="st0" d="M66.7,3.2c-2.6,0-4.7,0.8-6.1,2.3c-1.4,1.5-2.1,3.8-2.1,6.6s0.7,5.1,2.1,6.6c1.4,1.6,3.5,2.4,6.1,2.4
		s4.6-0.8,6.1-2.4c1.4-1.6,2.1-3.8,2.1-6.6s-0.7-5-2.1-6.6C71.3,4,69.3,3.2,66.7,3.2z M66.7,17.8c-1.5,0-2.5-0.5-3.2-1.4
		c-0.7-1-1.1-2.4-1.1-4.3s0.4-3.3,1.1-4.3c0.7-0.9,1.8-1.4,3.3-1.4c1.4,0,2.5,0.4,3.2,1.4c0.7,0.9,1.1,2.4,1.1,4.3s-0.4,3.4-1.1,4.3
		C69.2,17.4,68.1,17.8,66.7,17.8z"/>
	<path class="st0" d="M87.6,4.8c-1.1-0.9-2.8-1.4-4.9-1.4h-5.2v17.5h3.7v-6.2h1.2c2.2,0,3.9-0.5,5.1-1.5s1.9-2.5,1.9-4.3
		C89.3,7.1,88.7,5.7,87.6,4.8z M81.1,6.7h1.4c1.1,0,1.9,0.2,2.4,0.6s0.7,0.9,0.7,1.7c0,0.9-0.3,1.5-0.8,1.9
		c-0.6,0.4-1.5,0.6-2.7,0.6h-0.9L81.1,6.7L81.1,6.7z"/>
</g>
</svg>
