<?xml version="1.0" encoding="utf-8"?>
<!-- Generator: Adobe Illustrator 22.0.1, SVG Export Plug-In . SVG Version: 6.00 Build 0)  -->
<svg version="1.1" id="Layer_1" xmlns="http://www.w3.org/2000/svg" xmlns:xlink="http://www.w3.org/1999/xlink" x="0px" y="0px"
	 viewBox="0 0 53 54" style="enable-background:new 0 0 53 54;" xml:space="preserve">
<style type="text/css">
	.st0{fill:#000;}
</style>
<g>
	<g>
		<path class="st0" d="M15.6,4.9C9.7,4.9,4.9,9.6,4.9,15.4C4.9,21.2,9.7,26,15.6,26c5.9,0,10.7-4.7,10.7-10.6
			C26.3,9.6,21.5,4.9,15.6,4.9z M15.6,24.4c-5,0-9-4-9-8.9c0-4.9,4.1-8.9,9-8.9c5,0,9,4,9,8.9C24.6,20.4,20.6,24.4,15.6,24.4z
			 M15.6,9.5c-3.3,0-6,2.7-6,6c0,3.3,2.7,6,6,6c3.3,0,6-2.7,6-6C21.6,12.1,18.9,9.5,15.6,9.5z M11.2,16.1c0-0.2,0-0.4,0-0.6
			c0-2.4,2-4.3,4.4-4.3c0.2,0,0.4,0,0.6,0L11.2,16.1z M11.9,17.7l6-6c0.7,0.4,1.2,1,1.6,1.7l-5.9,5.9C12.9,18.9,12.3,18.4,11.9,17.7
			z M20,15.4c0,2.4-2,4.3-4.4,4.3c-0.1,0-0.1,0-0.2,0l4.6-4.5C20,15.3,20,15.4,20,15.4z M11.8,42.2c-1.8,0-3.3,1.4-3.3,3.2
			c0,1.8,1.5,3.2,3.3,3.2c1.8,0,3.3-1.4,3.3-3.2C15.1,43.6,13.6,42.2,11.8,42.2z M11.8,47c-0.9,0-1.6-0.7-1.6-1.6
			c0-0.9,0.7-1.6,1.6-1.6c0.9,0,1.6,0.7,1.6,1.6C13.5,46.3,12.7,47,11.8,47z M8.6,34.3v3c0,0.8,0.7,1.5,1.6,1.5h11
			c0.9,0,1.6-0.7,1.6-1.5v-3c0-0.8-0.7-1.5-1.6-1.5h-11C9.3,32.7,8.6,33.4,8.6,34.3z M10.2,34.3H21v2.9H10.2V34.3z M50.4,3H37.7
			c-0.4,0-0.8,0.4-0.8,0.8s0.4,0.8,0.8,0.8h12.7c0.5,0,1,0.4,1,0.9v23.8c0,0.5-0.4,0.9-1,0.9H27.3V26c0-0.1,0-0.3-0.1-0.4
			c2.5-2.7,3.9-6.3,3.9-10.2c0-4.2-1.7-8-4.5-10.8h4.9c0.4,0,0.8-0.4,0.8-0.8S32,3,31.6,3H25c-0.1,0-0.1,0-0.2,0
			c-2.6-1.9-5.8-3-9.3-3C7,0,0,6.9,0,15.4c0,3.9,1.5,7.5,3.9,10.2c-0.1,0.1-0.1,0.2-0.1,0.4v24.1c0,2.1,1.7,3.8,3.9,3.8h15.7
			c2.1,0,3.9-1.7,3.9-3.8V32h23.1c1.4,0,2.6-1.1,2.6-2.6V5.6C53,4.2,51.8,3,50.4,3z M25.7,50.2c0,1.2-1,2.2-2.2,2.2H7.7
			c-1.2,0-2.2-1-2.2-2.2v-23c2.7,2.3,6.3,3.7,10.1,3.7c3.9,0,7.4-1.4,10.1-3.7V50.2z M15.6,29.2c-7.7,0-14-6.2-14-13.8
			c0-7.6,6.3-13.8,14-13.8c7.7,0,14,6.2,14,13.8C29.5,23,23.3,29.2,15.6,29.2z M36.7,14.4h9.2c0.4,0,0.8-0.4,0.8-0.8
			c0-0.4-0.4-0.8-0.8-0.8h-9.2c-0.4,0-0.8,0.4-0.8,0.8C35.9,14,36.3,14.4,36.7,14.4z M36.7,18.3h9.2c0.4,0,0.8-0.4,0.8-0.8
			c0-0.4-0.4-0.8-0.8-0.8h-9.2c-0.4,0-0.8,0.4-0.8,0.8C35.9,17.9,36.3,18.3,36.7,18.3z"/>
	</g>
</g>
</svg>
