<?xml version="1.0" encoding="utf-8"?>
<!-- Generator: Adobe Illustrator 21.1.0, SVG Export Plug-In . SVG Version: 6.00 Build 0)  -->
<svg version="1.1" id="Layer_1" xmlns="http://www.w3.org/2000/svg" xmlns:xlink="http://www.w3.org/1999/xlink" x="0px" y="0px"
	 viewBox="0 0 59.4 60.5" style="enable-background:new 0 0 59.4 60.5;" xml:space="preserve">
<style type="text/css">
	.st0{fill:#000;}
</style>
<path class="st0" d="M29.7,22.7c-0.6,0-15.8-0.1-16.9-5.7L9.7,1c-0.1-0.4,0.2-0.8,0.6-0.9s0.8,0.2,0.9,0.6l3.1,16.1
	c0.6,3,9.3,4.4,15.4,4.4c7.2,0,14.8-1.4,15.3-3.7l3.2-16.9c0.1-0.4,0.5-0.7,0.9-0.6s0.7,0.5,0.6,0.9l-3.2,16.9
	C45.5,22.6,31.3,22.7,29.7,22.7z"/>
<path class="st0" d="M59.3,1.1V0.9c0.1-0.4-0.2-0.8-0.6-0.9s-0.8,0.2-0.9,0.6l-4.9,25.3c0,0.2-0.1,0.4-0.2,0.6h-0.1l-9.2,1.3
	c-1.8,0.3-3.2,1.6-3.7,3.3c-3.2,0.4-6.7,0.6-10,0.6c-2.9,0-6.3-0.2-9.5-0.7c-0.5-1.7-1.9-3-3.7-3.2l-9.2-1.3H7.2
	c-0.5-0.6-0.9-1.2-1-1.8L1.6,0.6C1.5,0.2,1.1-0.1,0.7,0S0,0.5,0.1,0.9v0.2C0.1,1.2,0,1.3,0,1.4v14.5c0,2.7,1.6,5,4.1,6.1l0.6,3
	c1.2,6.5,16.9,8.2,25,8.2c2.4,0,23.4-0.2,24.8-7l0.8-4.3c2.4-1,4.1-3.4,4.1-6.1V1.4C59.3,1.3,59.3,1.2,59.3,1.1z M1.6,15.9V8.6
	L3.8,20C2.4,19.1,1.6,17.6,1.6,15.9z M16.3,29.3c0.9,0.1,1.7,0.7,2.2,1.5c-3.2-0.5-6.1-1.3-8.4-2.3L16.3,29.3z M43.6,29.3l7.1-1
	c-2.1,1.1-5.4,2-9.3,2.6C41.8,30.1,42.7,29.5,43.6,29.3z M55.6,20.1l2.2-11.4V16C57.8,17.6,57,19.1,55.6,20.1z"/>
<path class="st0" d="M29.7,40.3c-2.7,0-5.1-1-7-2.9c-0.3-0.3-0.3-0.8,0-1.1s0.8-0.3,1.1,0c1.6,1.6,3.7,2.5,6,2.5s4.4-0.9,6-2.5
	c0.3-0.3,0.8-0.3,1.1,0c0.3,0.3,0.3,0.8,0,1.1C34.8,39.3,32.4,40.3,29.7,40.3z"/>
<path class="st0" d="M29.7,44.7c-3.8,0-7.4-1.5-10.1-4.2c-0.3-0.3-0.3-0.8,0-1.1s0.8-0.3,1.1,0c5,5,13.1,5,18.1,0
	c0.3-0.3,0.8-0.3,1.1,0c0.3,0.3,0.3,0.8,0,1.1C37.1,43.2,33.5,44.7,29.7,44.7z"/>
<path class="st0" d="M29.7,49.5c-5.1,0-9.9-2-13.5-5.6c-0.3-0.3-0.3-0.8,0-1.1s0.8-0.3,1.1,0c3.3,3.3,7.7,5.1,12.4,5.1
	s9.1-1.8,12.4-5.1c0.3-0.3,0.8-0.3,1.1,0c0.3,0.3,0.3,0.8,0,1.1C39.6,47.5,34.8,49.5,29.7,49.5z"/>
<path class="st0" d="M36.3,51.8h-9.8c-0.4,0-0.8,0.3-0.8,0.8V55l-3.9-2.5c-0.2-0.1-0.5-0.2-0.8,0c-0.2,0.1-0.4,0.4-0.4,0.7v5.9
	c0,0.3,0.1,0.5,0.4,0.7c0.1,0.1,0.2,0.1,0.4,0.1c0.1,0,0.3,0,0.4-0.1l3.9-2.5v2.4c0,0.4,0.3,0.8,0.8,0.8h9.8c0.4,0,0.8-0.3,0.8-0.8
	v-7.1C37,52.1,36.7,51.8,36.3,51.8z M22.2,57.6v-3.1l2.5,1.6L22.2,57.6z M35.5,58.8h-8.3v-5.6h8.3V58.8z"/>
</svg>
