<?xml version="1.0" encoding="utf-8"?>
<!-- Generator: Adobe Illustrator 21.1.0, SVG Export Plug-In . SVG Version: 6.00 Build 0)  -->
<svg version="1.1" id="Layer_1" xmlns="http://www.w3.org/2000/svg" xmlns:xlink="http://www.w3.org/1999/xlink" x="0px" y="0px"
	 viewBox="0 0 60 56" style="enable-background:new 0 0 60 56;" xml:space="preserve">
<style type="text/css">
	.st0{fill:none;stroke:#000;stroke-width:2;stroke-linecap:round;stroke-linejoin:round;}
</style>
<title>Home Automation - 039 - DVR Record</title>
<path class="st0" d="M59,28v21c0,1.1-0.9,2-2,2H3c-1.1,0-2-0.9-2-2V28c0-1.1,0.9-2,2-2h18.4c0.4,0.3,0.9,0.6,1.3,0.9
	c0.1,0.1,0.2,0.1,0.4,0.2c4.3,2.5,9.7,2.5,14,0c0.1-0.1,0.2-0.1,0.3-0.2c0.4-0.3,0.9-0.6,1.3-0.9H57C58.1,26,59,26.9,59,28z"/>
<circle class="st0" cx="30" cy="39" r="4"/>
<line class="st0" x1="30" y1="35" x2="30" y2="33"/>
<line class="st0" x1="30" y1="45" x2="30" y2="43"/>
<line class="st0" x1="26" y1="39" x2="24" y2="39"/>
<line class="st0" x1="36" y1="39" x2="34" y2="39"/>
<circle class="st0" cx="7.5" cy="39.5" r="2.5"/>
<circle class="st0" cx="16.5" cy="39.5" r="2.5"/>
<polygon class="st0" points="42,36 42,42 46,39 "/>
<line class="st0" x1="51" y1="37" x2="51" y2="41"/>
<line class="st0" x1="55" y1="37" x2="55" y2="41"/>
<path class="st0" d="M5,51h51l0,0v2c0,1.1-0.9,2-2,2H7c-1.1,0-2-0.9-2-2V51L5,51z"/>
<path class="st0" d="M44,15c0,0.3,0,0.7,0,1c-0.1,1.4-0.4,2.7-0.9,4c-0.7,1.9-1.8,3.6-3.3,5c-0.4,0.4-0.7,0.7-1.1,1
	c-0.4,0.3-0.9,0.6-1.3,0.9C37.2,27,37.1,27,37,27.1c-4.3,2.5-9.7,2.5-14,0c-0.1-0.1-0.2-0.1-0.4-0.2c-0.4-0.3-0.9-0.6-1.3-0.9
	s-0.8-0.6-1.1-1c-1.4-1.4-2.6-3.1-3.3-5c-0.5-1.3-0.8-2.6-0.9-4c0-0.3,0-0.7,0-1c0-7.7,6.3-14,14-14S44,7.3,44,15L44,15z"/>
<path class="st0" d="M30,21c-1,0-2.1-0.3-2.9-0.8L26.8,20c-0.2-0.1-0.3-0.2-0.5-0.3c-0.2-0.1-0.3-0.2-0.4-0.4
	c-0.6-0.6-1.2-1.4-1.5-2.2c-0.2-0.5-0.3-1.1-0.4-1.6v-0.2c0-0.1,0-0.2,0-0.3c0-0.9,0.2-1.8,0.6-2.6c1.4-3,5-4.3,8-2.9
	c1.3,0.6,2.3,1.6,2.9,2.9c0.4,0.8,0.6,1.7,0.6,2.6c0,0.1,0,0.2,0,0.3v0.2c0,0.6-0.2,1.1-0.4,1.7c-0.3,0.8-0.8,1.5-1.4,2.1
	c-0.1,0.1-0.3,0.3-0.4,0.4c-0.2,0.1-0.3,0.3-0.5,0.4l0,0l-0.2,0.1C32.1,20.7,31,21,30,21z"/>
<line class="st0" x1="5" y1="30" x2="6" y2="30"/>
<line class="st0" x1="10" y1="30" x2="20" y2="30"/>
<line class="st0" x1="12.1" y1="51" x2="8" y2="55"/>
<line class="st0" x1="17.2" y1="51" x2="13.1" y2="55"/>
<line class="st0" x1="22.3" y1="51" x2="18.2" y2="55"/>
<line class="st0" x1="27.4" y1="51" x2="23.3" y2="55"/>
<line class="st0" x1="32.5" y1="51" x2="28.5" y2="55"/>
<line class="st0" x1="37.7" y1="51" x2="33.6" y2="55"/>
<line class="st0" x1="42.8" y1="51" x2="38.7" y2="55"/>
<line class="st0" x1="47.9" y1="51" x2="43.8" y2="55"/>
<line class="st0" x1="53" y1="51" x2="48.9" y2="55"/>
</svg>
