<svg width="20" height="20" viewBox="0 0 20 20" version="1.1" xmlns="http://www.w3.org/2000/svg" xmlns:xlink="http://www.w3.org/1999/xlink">
<title>instagram</title>
<desc>Created using Figma</desc>
<g id="Canvas" transform="translate(-8528 -3742)">
<g id="instagram">
<g id="Shape">
<use xlink:href="#path0_fill" transform="translate(8528 3742)" fill="url(#paint0_linear)"/>
</g>
<g id="Shape">
<use xlink:href="#path1_fill" transform="translate(8532.76 3746.76)" fill="url(#paint1_linear)"/>
</g>
<g id="Oval">
<use xlink:href="#path2_fill" transform="translate(8542.29 3745.81)" fill="url(#paint2_linear)"/>
</g>
</g>
</g>
<defs>
<linearGradient id="paint0_linear" x1="0" y1="0" x2="1" y2="0" gradientUnits="userSpaceOnUse" gradientTransform="matrix(0 -19.7864 19.7864 0 10 19.9418)">
<stop offset="0" stop-color="#E09B3D"/>
<stop offset="0.3" stop-color="#C74C4D"/>
<stop offset="0.6" stop-color="#C21975"/>
<stop offset="1" stop-color="#7024C4"/>
</linearGradient>
<linearGradient id="paint1_linear" x1="0" y1="0" x2="1" y2="0" gradientUnits="userSpaceOnUse" gradientTransform="matrix(0 -20.0366 20.0366 0 5.2381 15.3056)">
<stop offset="0" stop-color="#E09B3D"/>
<stop offset="0.3" stop-color="#C74C4D"/>
<stop offset="0.6" stop-color="#C21975"/>
<stop offset="1" stop-color="#7024C4"/>
</linearGradient>
<linearGradient id="paint2_linear" x1="0" y1="0" x2="1" y2="0" gradientUnits="userSpaceOnUse" gradientTransform="matrix(0 -15.9634 15.9634 0 1 13.1628)">
<stop offset="0" stop-color="#E09B3D"/>
<stop offset="0.3" stop-color="#C74C4D"/>
<stop offset="0.6" stop-color="#C21975"/>
<stop offset="1" stop-color="#7024C4"/>
</linearGradient>
<path id="path0_fill" fill-rule="evenodd" d="M 5.95801 0L 14.042 0C 17.3271 0 20 2.67285 20 5.95801L 20 14.042C 20 17.3271 17.3271 20 14.042 20L 5.95801 20C 2.67285 20 0 17.3271 0 14.042L 0 5.95801C 0 2.67285 2.67285 0 5.95801 0ZM 14.042 17.988C 16.2207 17.988 17.9873 16.2212 17.9873 14.0417L 17.9873 5.95801C 17.9873 3.77856 16.2207 2.01196 14.042 2.01196L 5.95801 2.01196C 3.77832 2.01196 2.01172 3.77856 2.01172 5.95801L 2.01172 14.0417C 2.01172 16.2212 3.77832 17.988 5.95801 17.988L 14.042 17.988Z"/>
<path id="path1_fill" fill-rule="evenodd" d="M 0 5.23804C 0 2.34985 2.34961 0 5.23828 0C 8.12598 0 10.4766 2.34985 10.4766 5.23804C 10.4766 8.12646 8.12598 10.4761 5.23828 10.4761C 2.34961 10.4761 0 8.12622 0 5.23804ZM 2.03711 5.23804C 2.03711 7.00562 3.46973 8.43872 5.2373 8.43872C 7.00586 8.43872 8.43848 7.00562 8.43848 5.23804C 8.43848 3.47021 7.00586 2.03735 5.2373 2.03735C 3.46973 2.03735 2.03711 3.47021 2.03711 5.23804Z"/>
<path id="path2_fill" d="M 1 2C 1.55228 2 2 1.55228 2 1C 2 0.447715 1.55228 0 1 0C 0.447715 0 0 0.447715 0 1C 0 1.55228 0.447715 2 1 2Z"/>
</defs>
</svg>
