<?xml version="1.0" encoding="utf-8"?>
<!-- Generator: Adobe Illustrator 21.1.0, SVG Export Plug-In . SVG Version: 6.00 Build 0)  -->
<svg version="1.1" id="Layer_1" xmlns="http://www.w3.org/2000/svg" xmlns:xlink="http://www.w3.org/1999/xlink" x="0px" y="0px"
	 viewBox="0 0 64 38" style="enable-background:new 0 0 64 38;" xml:space="preserve">
<style type="text/css">
	.st0{fill:#000;}
</style>
<path class="st0" d="M45,28c0,0.6-0.4,1-1,1s-1-0.4-1-1c0-1.7-1.3-3-3-3s-3,1.3-3,3c0,0.6-0.4,1-1,1s-1-0.4-1-1c0-2.8,2.2-5,5-5
	S45,25.2,45,28z M64,5v9v21c0,0.6-0.4,1-1,1h-8c-0.8,0-2.2,0-4,0c-1.3,0-2.5-0.9-2.8-2.2C46.3,36.3,43.4,38,40,38
	c-3.7,0-6.9-2-8.7-5c-0.1,0.2-0.3,0.3-0.4,0.4c-0.5,0.4-1.2,0.7-1.9,0.7c-0.2,0-0.4,0-0.6-0.1c-2.9-0.6-5.2-1.3-6.8-2.1
	c-0.2-0.1-0.4-0.3-0.4-0.4C20,29.2,20,26.1,20,23s0-6.2,1.1-8.4c0-0.1,0.1-0.2,0.2-0.3c3-3,16.2-12.2,20.5-13.3C45.9,0,55,0,63,0
	c0.6,0,1,0.4,1,1s-0.4,1-1,1c-7.9,0-16.9,0-20.8,1C38.6,3.9,26,12.5,22.8,15.6C22,17.4,22,20.2,22,23c0,2.7,0,5.5,0.8,7.3
	c1.5,0.7,3.5,1.3,6,1.8c0.3,0.1,0.6,0,0.9-0.2c0.1-0.1,0.4-0.4,0.4-0.8V28c0-5.5,4.5-10,10-10c0.3,0,0.7,0,1,0.1V15h-5
	c-0.3,0-0.5-0.1-0.7-0.3l-2-2c-0.4-0.4-0.4-1,0-1.4c1.9-1.9,6-4.8,10.3-6.7c0.1,0,0.2-0.1,0.3-0.1C49.8,4.1,53.4,4,63,4
	C63.6,4,64,4.4,64,5z M62,6c-5.8,0-9.4,0.1-12.7,0.2L44,13h18V6z M36.4,13h5.1l5.2-6.7c-0.8,0-1.6,0.1-2.5,0.1
	c-3.6,1.6-6.9,3.8-8.8,5.5L36.4,13z M48,28c0-4.4-3.6-8-8-8s-8,3.6-8,8s3.6,8,8,8S48,32.4,48,28z M62,34v-3h-8c-0.6,0-1-0.4-1-1
	s0.4-1,1-1h8V15H43v3.5c4.1,1.3,7,5.1,7,9.5v5c0,0.5,0.4,1,1,1c1.8,0,3.2,0,4,0H62z M51,17h-3c-0.6,0-1,0.4-1,1c0,0.6,0.4,1,1,1h3
	c0.6,0,1-0.4,1-1S51.6,17,51,17z M17.7,20c-0.5-0.3-1.1-0.1-1.4,0.3c-0.8,1.4-1.3,3-1.3,4.6s0.4,3.2,1.3,4.6
	c0.2,0.3,0.5,0.5,0.9,0.5c0.2,0,0.4,0,0.5-0.1c0.5-0.3,0.6-0.9,0.3-1.4c-0.7-1.1-1-2.3-1-3.6s0.3-2.5,1-3.6
	C18.3,20.9,18.1,20.3,17.7,20z M13.4,17.5c-0.5-0.3-1.1-0.1-1.4,0.3c-1.3,2.2-2,4.7-2,7.2s0.7,5,2,7.2c0.2,0.3,0.5,0.5,0.9,0.5
	c0.2,0,0.4,0,0.5-0.1c0.5-0.3,0.6-0.9,0.3-1.4c-1.1-1.9-1.7-4-1.7-6.2s0.6-4.3,1.7-6.2C14,18.4,13.9,17.7,13.4,17.5z M9.1,14.9
	c-0.5-0.3-1.1-0.1-1.4,0.3C5.9,18.2,5,21.6,5,25s0.9,6.8,2.7,9.8c0.2,0.3,0.5,0.5,0.9,0.5c0.2,0,0.4,0,0.5-0.1
	c0.5-0.3,0.6-0.9,0.3-1.4C7.8,31.1,7,28.1,7,25s0.8-6.1,2.4-8.7C9.7,15.8,9.6,15.2,9.1,14.9z M2,25c0-4,1.1-7.9,3.1-11.3
	c0.3-0.5,0.1-1.1-0.3-1.4c-0.5-0.3-1.1-0.1-1.4,0.3C1.2,16.4,0,20.6,0,25s1.2,8.6,3.4,12.3c0.2,0.3,0.5,0.5,0.9,0.5
	c0.2,0,0.4,0,0.5-0.1c0.5-0.3,0.6-0.9,0.3-1.4C3.1,32.9,2,29,2,25z"/>
</svg>
