<svg width="22" height="25" viewBox="0 0 22 25" version="1.1" xmlns="http://www.w3.org/2000/svg" xmlns:xlink="http://www.w3.org/1999/xlink">
<title>pdf</title>
<desc>Created using Figma</desc>
<g id="Canvas" transform="translate(-23779 -1178)">
<g id="pdf">
<g id="Shape">
<use xlink:href="#path0_fill" transform="translate(23782.1 1178)" fill="#E2E5E7"/>
</g>
<g id="Shape">
<use xlink:href="#path1_fill" transform="translate(23794.7 1178)" fill="#B0B7BD"/>
</g>
<g id="Shape">
<use xlink:href="#path2_fill" transform="translate(23796.3 1184.25)" fill="#CAD1D8"/>
</g>
<g id="Shape">
<use xlink:href="#path3_fill" transform="translate(23779 1189.72)" fill="#F15642"/>
</g>
<g id="Group">
<g id="Shape">
<use xlink:href="#path4_fill" transform="translate(23782.4 1192.37)" fill="#FFFFFF"/>
</g>
<g id="Shape">
<use xlink:href="#path5_fill" transform="translate(23786.7 1192.43)" fill="#FFFFFF"/>
</g>
<g id="Shape">
<use xlink:href="#path6_fill" transform="translate(23791.5 1192.43)" fill="#FFFFFF"/>
</g>
</g>
<g id="Shape">
<use xlink:href="#path7_fill" transform="translate(23782.1 1198.31)" fill="#CAD1D8"/>
</g>
</g>
</g>
<defs>
<path id="path0_fill" d="M 1.57143 0C 0.707143 0 0 0.703125 0 1.5625L 0 23.4375C 0 24.2969 0.707143 25 1.57143 25L 17.2857 25C 18.15 25 18.8571 24.2969 18.8571 23.4375L 18.8571 6.25L 12.5714 0L 1.57143 0Z"/>
<path id="path1_fill" d="M 1.57143 6.25L 6.28571 6.25L 0 0L 0 4.6875C 0 5.54688 0.707143 6.25 1.57143 6.25Z"/>
<path id="path2_fill" d="M 4.71429 4.6875L 0 0L 4.71429 0L 4.71429 4.6875Z"/>
<path id="path3_fill" d="M 18.8571 8.59375C 18.8571 9.02344 18.5036 9.375 18.0714 9.375L 0.785714 9.375C 0.353571 9.375 0 9.02344 0 8.59375L 0 0.78125C 0 0.351562 0.353571 0 0.785714 0L 18.0714 0C 18.5036 0 18.8571 0.351562 18.8571 0.78125L 18.8571 8.59375Z"/>
<path id="path4_fill" fill-rule="evenodd" d="M 0.425781 0C 0.164062 0 0 0.224976 0 0.431274L 0 3.94849C 0 4.22339 0.21875 4.37891 0.425781 4.37891C 0.652344 4.37891 0.828125 4.22339 0.828125 3.94849L 0.828125 3.12341L 1.87695 3.12341C 2.69531 3.12341 3.42969 2.57349 3.42969 1.58594C 3.42969 0.543701 2.69531 0 1.87695 0L 0.425781 0ZM 0.828125 2.34302L 0.828125 0.786743L 1.87695 0.786743C 2.29883 0.786743 2.63086 1.14929 2.63086 1.58594C 2.63086 1.97351 2.29883 2.34302 1.87695 2.34302L 0.828125 2.34302Z"/>
<path id="path5_fill" fill-rule="evenodd" d="M 0 3.93591C 0 4.21021 0.226562 4.32263 0.433594 4.32263L 1.92969 4.32263C 4.67969 4.32263 4.74414 0 1.87305 0L 0.433594 0C 0.226562 0 0 0.16333 0 0.387451L 0 3.93591ZM 0.830078 3.56091L 0.830078 0.762451L 1.87305 0.762451C 3.64453 0.762451 3.56836 3.56091 1.87305 3.56091L 0.830078 3.56091Z"/>
<path id="path6_fill" d="M 0.821857 0.813281L 0.821857 1.80625L 2.42393 1.80625C 2.65021 1.80625 2.8765 2.03125 2.8765 2.24922C 2.8765 2.45547 2.65021 2.62422 2.42393 2.62422L 0.821857 2.62422L 0.821857 3.93594C 0.821857 4.15469 0.6655 4.32266 0.4455 4.32266C 0.168929 4.32266 0 4.15469 0 3.93594L 0 0.3875C 0 0.163281 0.169714 0 0.4455 0L 2.651 0C 2.92757 0 3.091 0.163281 3.091 0.3875C 3.091 0.5875 2.92757 0.8125 2.651 0.8125L 0.821857 0.8125L 0.821857 0.813281Z"/>
<path id="path7_fill" d="M 14.9286 0.78125L 0 0.78125L 0 1.5625L 14.9286 1.5625C 15.3607 1.5625 15.7143 1.21094 15.7143 0.78125L 15.7143 0C 15.7143 0.429688 15.3607 0.78125 14.9286 0.78125Z"/>
</defs>
</svg>
