<svg width="22" height="25" viewBox="0 0 22 25" version="1.1" xmlns="http://www.w3.org/2000/svg" xmlns:xlink="http://www.w3.org/1999/xlink">
<title>png</title>
<desc>Created using Figma</desc>
<g id="Canvas" transform="translate(-23779 -1288)">
<g id="png">
<g id="Shape">
<use xlink:href="#path0_fill" transform="translate(23782.1 1288)" fill="#E2E5E7"/>
</g>
<g id="Shape">
<use xlink:href="#path1_fill" transform="translate(23794.7 1288)" fill="#B0B7BD"/>
</g>
<g id="Shape">
<use xlink:href="#path2_fill" transform="translate(23796.3 1294.25)" fill="#CAD1D8"/>
</g>
<g id="Shape">
<use xlink:href="#path3_fill" transform="translate(23779 1299.72)" fill="#A066AA"/>
</g>
<g id="Group">
<g id="Shape">
<use xlink:href="#path4_fill" transform="translate(23782 1302.37)" fill="#FFFFFF"/>
</g>
<g id="Shape">
<use xlink:href="#path5_fill" transform="translate(23786.2 1302.37)" fill="#FFFFFF"/>
</g>
<g id="Shape">
<use xlink:href="#path6_fill" transform="translate(23790.9 1302.32)" fill="#FFFFFF"/>
</g>
</g>
<g id="Shape">
<use xlink:href="#path7_fill" transform="translate(23782.1 1308.31)" fill="#CAD1D8"/>
</g>
</g>
</g>
<defs>
<path id="path0_fill" d="M 1.57143 0C 0.707143 0 0 0.703125 0 1.5625L 0 23.4375C 0 24.2969 0.707143 25 1.57143 25L 17.2857 25C 18.15 25 18.8571 24.2969 18.8571 23.4375L 18.8571 6.25L 12.5714 0L 1.57143 0Z"/>
<path id="path1_fill" d="M 1.57143 6.25L 6.28571 6.25L 0 0L 0 4.6875C 0 5.54688 0.707143 6.25 1.57143 6.25Z"/>
<path id="path2_fill" d="M 4.71429 4.6875L 0 0L 4.71429 0L 4.71429 4.6875Z"/>
<path id="path3_fill" d="M 18.8571 8.59375C 18.8571 9.02344 18.5036 9.375 18.0714 9.375L 0.785714 9.375C 0.353571 9.375 0 9.02344 0 8.59375L 0 0.78125C 0 0.351562 0.353571 0 0.785714 0L 18.0714 0C 18.5036 0 18.8571 0.351562 18.8571 0.78125L 18.8571 8.59375Z"/>
<path id="path4_fill" fill-rule="evenodd" d="M 0.425781 0C 0.162109 0 0 0.22583 0 0.432007L 0 3.94849C 0 4.22424 0.21875 4.37964 0.425781 4.37964C 0.654297 4.37964 0.828125 4.22424 0.828125 3.94849L 0.828125 3.12341L 1.87891 3.12341C 2.69531 3.12341 3.42969 2.57422 3.42969 1.58667C 3.42969 0.543701 2.69531 0 1.87891 0L 0.425781 0ZM 0.828125 2.3429L 0.828125 0.787476L 1.87695 0.787476C 2.29883 0.787476 2.63086 1.14917 2.63086 1.58667C 2.63086 1.97424 2.29883 2.3429 1.87695 2.3429L 0.828125 2.3429Z"/>
<path id="path5_fill" d="M 0.000785714 0.494531C 0.000785714 0.26875 0.0510714 0.0507812 0.377929 0.0507812C 0.603429 0.0507812 0.6545 0.107031 0.823429 0.26875L 2.90243 2.85547L 2.90243 0.432031C 2.90243 0.225781 3.08393 0 3.29843 0C 3.52471 0 3.74393 0.225781 3.74393 0.432031L 3.74393 3.94844C 3.74393 4.22422 3.57421 4.32891 3.41079 4.37969C 3.19157 4.37969 3.08393 4.32969 2.90243 4.16172L 0.823429 1.5375L 0.823429 3.94922C 0.823429 4.225 0.653714 4.38047 0.427429 4.38047C 0.201143 4.38047 0 4.225 0 3.94922L 0 0.494531L 0.000785714 0.494531Z"/>
<path id="path6_fill" d="M 3.80129 3.95391C 3.355 4.32188 2.80814 4.47891 2.25579 4.47891C 0.935786 4.47891 0 3.72891 0 2.24219C 0 0.980469 0.986857 0 2.31157 0C 2.80814 0 3.35421 0.16875 3.74393 0.55C 4.12736 0.924219 3.57421 1.48047 3.19786 1.15C 2.96529 0.924219 2.63843 0.75625 2.31157 0.75625C 1.55179 0.75625 0.817143 1.36172 0.817143 2.24219C 0.817143 3.16719 1.43236 3.72891 2.25579 3.72891C 2.63843 3.72891 2.96529 3.61641 3.19786 3.44766L 3.19786 2.68047L 2.25579 2.68047C 1.69636 2.68047 1.75293 1.91719 2.25579 1.91719L 3.51214 1.91719C 3.74471 1.91719 3.95764 2.09297 3.95764 2.28672L 3.95764 3.61719C 3.95764 3.72891 3.90814 3.83438 3.80129 3.95391Z"/>
<path id="path7_fill" d="M 14.9286 0.78125L 0 0.78125L 0 1.5625L 14.9286 1.5625C 15.3607 1.5625 15.7143 1.21094 15.7143 0.78125L 15.7143 0C 15.7143 0.429688 15.3607 0.78125 14.9286 0.78125Z"/>
</defs>
</svg>
