<?xml version="1.0" encoding="utf-8"?>
<!-- Generator: Adobe Illustrator 22.0.1, SVG Export Plug-In . SVG Version: 6.00 Build 0)  -->
<svg version="1.1" id="Layer_1" xmlns="http://www.w3.org/2000/svg" xmlns:xlink="http://www.w3.org/1999/xlink" x="0px" y="0px"
	 viewBox="0 0 57 56" style="enable-background:new 0 0 57 56;" xml:space="preserve">
<style type="text/css">
	.st0{fill:#000;}
</style>
<g>
	<g>
		<path class="st0" d="M28.5,0C12.8,0,0,12.5,0,28c0,15.5,12.8,28,28.5,28S57,43.4,57,28C57,12.6,44.2,0,28.5,0z M28.5,54.1
			C13.9,54.1,1.9,42.4,1.9,28c0-14.4,12-26.1,26.6-26.1c14.6,0,26.6,11.8,26.6,26.1C55.1,42.4,43.1,54.1,28.5,54.1z M28.5,9.3
			c-10.5,0-19,8.4-19,18.7c0,1,0.1,2.1,0.3,3c0,0.5,0.6,0.8,1,0.7c0.5,0,0.9-0.6,0.8-1c-0.1-0.8-0.2-1.8-0.2-2.7
			c0-9.2,7.7-16.8,17.1-16.8c9.4,0,17.1,7.6,17.1,16.8c0,9.2-7.7,16.8-17.1,16.8c-4.2,0-8.3-1.5-11.4-4.3l5.3-5.2
			c1.7,1.4,3.8,2.1,6,2.1c5.2,0,9.5-4.2,9.5-9.3s-4.3-9.3-9.5-9.3c-5.2,0-9.5,4.2-9.5,9.3c0,0.6,0,1,0.2,1.5c0,0.5,0.6,0.8,1,0.7
			c0.5,0,0.9-0.6,0.8-1c-0.1-0.4-0.1-0.8-0.1-1.2c0-4.1,3.4-7.5,7.6-7.5c4.2,0,7.6,3.4,7.6,7.5c0,4.1-3.4,7.5-7.6,7.5
			c-1.8,0-3.4-0.5-4.7-1.5l2.8-2.7c0.6,0.3,1.2,0.5,1.9,0.5c2.1,0,3.8-1.7,3.8-3.7c0-2.1-1.7-3.7-3.8-3.7c-2.1,0-3.8,1.7-3.8,3.7
			c0,0.7,0.2,1.3,0.5,1.9l-3.5,3.4l-6.6,6.5l-3.4,3.4c-0.4,0.4-0.4,0.9,0,1.3c0.2,0.2,0.4,0.3,0.7,0.3c0.3,0,0.5-0.1,0.7-0.3
			l2.8-2.7c3.4,3.1,8,4.9,12.7,4.9c10.5,0,19-8.3,19-18.7C47.5,17.7,38.9,9.3,28.5,9.3z M28.5,26.1c1,0,1.9,0.8,1.9,1.9
			c0,1-0.9,1.9-1.9,1.9c-0.5,0-0.9-0.2-1.2-0.5c0,0-0.1-0.1-0.1-0.1c0,0-0.1-0.1-0.1-0.1c-0.3-0.3-0.5-0.8-0.5-1.2
			C26.6,27,27.5,26.1,28.5,26.1z M10.4,17.7c0-1-0.9-1.9-1.9-1.9c-1,0-1.9,0.8-1.9,1.9c0,1,0.9,1.9,1.9,1.9
			C9.6,19.6,10.4,18.8,10.4,17.7z M38,38.3c1,0,1.9-0.8,1.9-1.9S39,34.5,38,34.5c-1,0-1.9,0.8-1.9,1.9C36.1,37.4,37,38.3,38,38.3z
			 M40.8,12.1c1,0,1.9-0.8,1.9-1.9c0-1-0.9-1.9-1.9-1.9s-1.9,0.8-1.9,1.9C38.9,11.3,39.8,12.1,40.8,12.1z"/>
	</g>
</g>
</svg>
