<svg xmlns="http://www.w3.org/2000/svg" width="100" height="100" viewBox="0 0 100 100">
  <metadata><?xpacket begin="﻿" id="W5M0MpCehiHzreSzNTczkc9d"?>
<x:xmpmeta xmlns:x="adobe:ns:meta/" x:xmptk="Adobe XMP Core 5.6-c138 79.159824, 2016/09/14-01:09:01        ">
   <rdf:RDF xmlns:rdf="http://www.w3.org/1999/02/22-rdf-syntax-ns#">
      <rdf:Description rdf:about=""/>
   </rdf:RDF>
</x:xmpmeta>
                                                                                                    
                                                                                                    
                                                                                                    
                                                                                                    
                                                                                                    
                                                                                                    
                                                                                                    
                                                                                                    
                                                                                                    
                                                                                                    
                                                                                                    
                                                                                                    
                                                                                                    
                                                                                                    
                                                                                                    
                                                                                                    
                                                                                                    
                                                                                                    
                                                                                                    
                                                                                                    
                           
<?xpacket end="w"?></metadata>
<defs>
    <style>
      .cls-1 {
        fill: #5fae24;
        fill-rule: evenodd;
      }
    </style>
  </defs>
  <path id="Forma_1" data-name="Forma 1" class="cls-1" d="M825.952,677.786a3.019,3.019,0,0,0-4.285.119l-27.143,29.881-16.548-13.095a3.049,3.049,0,0,0-3.809,4.762l18.809,15a3.108,3.108,0,0,0,4.167-.357l29.047-32.024A2.921,2.921,0,0,0,825.952,677.786Zm9.4-17.143A50.008,50.008,0,1,0,850,696,49.843,49.843,0,0,0,835.357,660.643Zm-4.286,66.428a43.97,43.97,0,0,1-62.142,0A44.215,44.215,0,0,1,756.071,696a43.929,43.929,0,1,1,87.858,0A44.215,44.215,0,0,1,831.071,727.071Z" transform="translate(-750 -646)"/>
</svg>
